<?xml version="1.0" encoding="UTF-8"?>
<svg width="100px" height="100px" viewBox="0 0 100 100" version="1.1" xmlns="http://www.w3.org/2000/svg" xmlns:xlink="http://www.w3.org/1999/xlink">
    <!-- Generator: Sketch 51.2 (57519) - http://www.bohemiancoding.com/sketch -->
    <title>genbrugsstation</title>
    <desc>Created with Sketch.</desc>
    <defs></defs>
    <g id="genbrugsstation" stroke="none" stroke-width="1" fill="none" fill-rule="evenodd">
        <path d="M11.3386,-1.42108547e-14 C11.3386,-1.42108547e-14 -0.0004,-1.42108547e-14 -0.0004,11.339 L-0.0004,87.874 C-0.0004,87.874 -0.0004,99.213 11.3386,99.213 L87.8736,99.213 C87.8736,99.213 99.2126,99.213 99.2126,87.874 L99.2126,11.339 C99.2126,11.339 99.2126,-1.42108547e-14 87.8736,-1.42108547e-14 L11.3386,-1.42108547e-14 Z" id="Fill-1" fill="#5FBBA1"></path>
        <path d="M14.2732,87.5756779 L13.6702,87.7196779 C13.0402,87.8636779 12.6712,87.9176779 12.1762,87.9176779 C10.2052,87.9176779 8.8372,86.6576779 8.8372,84.8216779 C8.8372,83.9216779 9.1792,83.1386779 9.8182,82.5536779 C10.4302,81.9956779 11.1142,81.7616779 12.1402,81.7616779 C12.5722,81.7616779 13.0042,81.8066779 13.3822,81.8966779 C13.6702,81.9686779 13.8502,82.0316779 14.2642,82.2116779 L13.9942,83.1566779 C13.7782,83.0756779 13.6162,83.0216779 13.5082,82.9856779 C13.0852,82.8416779 12.6622,82.7696779 12.2842,82.7696779 C10.9522,82.7696779 10.0252,83.5886779 10.0252,84.7676779 C10.0252,85.9826779 11.0422,86.9096779 12.3652,86.9096779 C12.6352,86.9096779 12.7882,86.8826779 13.1392,86.7836779 L13.1392,85.1456779 L14.2732,85.1456779 L14.2732,87.5756779 Z M19.4852,87.8006779 L15.7502,87.8006779 L15.7502,81.8606779 L19.3682,81.8606779 L19.3682,82.8236779 L16.8842,82.8236779 L16.8842,84.2906779 L18.9182,84.2906779 L18.9182,85.2536779 L16.8842,85.2536779 L16.8842,86.8376779 L19.4852,86.8376779 L19.4852,87.8006779 Z M25.7592,87.8546779 L24.5712,87.8546779 L22.0242,84.0116779 L21.8262,83.6516779 C21.7902,83.5796779 21.7722,83.5436779 21.7452,83.4446779 L21.7452,87.8006779 L20.6652,87.8006779 L20.6652,81.8606779 L21.9702,81.8606779 L24.3732,85.6226779 C24.5442,85.8926779 24.6162,86.0816779 24.6882,86.2706779 L24.6882,81.8606779 L25.7592,81.8606779 L25.7592,87.8546779 Z M31.3852,86.2166779 C31.3852,87.2426779 30.7372,87.8006779 29.5492,87.8006779 L27.1282,87.8006779 L27.1282,81.8606779 L29.2792,81.8606779 C30.0532,81.8606779 30.4402,81.9596779 30.7642,82.2566779 C31.0522,82.5086779 31.2322,82.9316779 31.2322,83.3186779 C31.2322,83.6516779 31.1062,84.0026779 30.8902,84.2546779 C30.6292,84.5516779 30.3862,84.6596779 29.9182,84.6866779 C30.8182,84.7046779 31.3852,85.2896779 31.3852,86.2166779 Z M30.1432,86.0906779 C30.1432,85.5506779 29.7562,85.2536779 29.0542,85.2536779 L28.3162,85.2536779 L28.3162,86.8916779 L29.0542,86.8916779 C29.4052,86.8916779 29.5672,86.8646779 29.7382,86.7836779 C29.9902,86.6576779 30.1432,86.3966779 30.1432,86.0906779 Z M29.9722,83.5166779 C29.9722,83.0396779 29.6302,82.7606779 29.0542,82.7606779 L28.3162,82.7606779 L28.3162,84.2906779 L28.9912,84.2906779 C29.6302,84.2906779 29.9722,84.0206779 29.9722,83.5166779 Z M36.8132,87.8006779 L35.5712,87.8006779 L34.2122,85.4246779 L33.6452,85.4246779 L33.6452,87.8006779 L32.5112,87.8006779 L32.5112,81.8606779 L34.4912,81.8606779 C35.3552,81.8606779 35.7512,81.9686779 36.1022,82.3016779 C36.4262,82.5986779 36.5882,83.0306779 36.5882,83.5886779 C36.5882,84.0476779 36.4802,84.4166779 36.2642,84.7046779 C36.0392,84.9926779 35.8322,85.1186779 35.3372,85.2536779 L36.8132,87.8006779 Z M35.4182,83.6156779 C35.4182,83.0486779 35.1212,82.8236779 34.3832,82.8236779 L33.6452,82.8236779 L33.6452,84.4616779 L34.3832,84.4616779 C35.1032,84.4616779 35.4182,84.2096779 35.4182,83.6156779 Z M42.6102,85.4786779 C42.6102,86.5676779 42.4122,87.0536779 41.7912,87.4856779 C41.3592,87.7826779 40.8552,87.9176779 40.1172,87.9176779 C39.3702,87.9176779 38.8842,87.7916779 38.4342,87.4856779 C37.8222,87.0626779 37.6242,86.5676779 37.6242,85.4786779 L37.6242,81.8606779 L38.7492,81.8606779 L38.7492,85.5416779 C38.7492,86.4236779 39.2082,86.8646779 40.1532,86.8646779 C41.0172,86.8646779 41.4762,86.3966779 41.4762,85.5416779 L41.4762,81.8606779 L42.6102,81.8606779 L42.6102,85.4786779 Z M48.9922,87.5756779 L48.3892,87.7196779 C47.7592,87.8636779 47.3902,87.9176779 46.8952,87.9176779 C44.9242,87.9176779 43.5562,86.6576779 43.5562,84.8216779 C43.5562,83.9216779 43.8982,83.1386779 44.5372,82.5536779 C45.1492,81.9956779 45.8332,81.7616779 46.8592,81.7616779 C47.2912,81.7616779 47.7232,81.8066779 48.1012,81.8966779 C48.3892,81.9686779 48.5692,82.0316779 48.9832,82.2116779 L48.7132,83.1566779 C48.4972,83.0756779 48.3352,83.0216779 48.2272,82.9856779 C47.8042,82.8416779 47.3812,82.7696779 47.0032,82.7696779 C45.6712,82.7696779 44.7442,83.5886779 44.7442,84.7676779 C44.7442,85.9826779 45.7612,86.9096779 47.0842,86.9096779 C47.3542,86.9096779 47.5072,86.8826779 47.8582,86.7836779 L47.8582,85.1456779 L48.9922,85.1456779 L48.9922,87.5756779 Z M54.2042,82.2566779 L53.7542,83.2736779 C53.1242,82.9946779 52.6112,82.8506779 52.2152,82.8506779 C51.6842,82.8506779 51.3422,83.0666779 51.3422,83.3996779 C51.3422,83.6516779 51.4862,83.8046779 51.9092,84.0296779 C52.8182,84.5156779 53.4122,84.8936779 53.6912,85.1726779 C53.9432,85.4246779 54.0962,85.8206779 54.0962,86.2346779 C54.0962,87.2966779 53.3222,87.9176779 52.0082,87.9176779 C51.8282,87.9176779 51.6482,87.9086779 51.4772,87.8816779 C51.0542,87.8276779 50.8562,87.7556779 50.2352,87.4676779 L49.8482,87.2876779 L50.3252,86.2436779 C50.7572,86.4776779 50.9372,86.5676779 51.1712,86.6576779 C51.4682,86.7656779 51.7922,86.8286779 52.0262,86.8286779 C52.5482,86.8286779 52.8902,86.5946779 52.8902,86.2346779 C52.8902,85.9826779 52.7552,85.8116779 52.3682,85.5956779 L51.4502,85.0736779 C50.3972,84.4706779 50.0732,84.0746779 50.0732,83.4266779 C50.0732,83.1296779 50.1632,82.8236779 50.3072,82.5986779 C50.4062,82.4456779 50.5592,82.2926779 50.7482,82.1576779 C51.1802,81.8606779 51.5492,81.7616779 52.2422,81.7616779 C52.6382,81.7616779 52.9892,81.8066779 53.3582,81.9146779 C53.6462,82.0046779 53.8082,82.0676779 54.2042,82.2566779 Z M59.0202,82.2566779 L58.5702,83.2736779 C57.9402,82.9946779 57.4272,82.8506779 57.0312,82.8506779 C56.5002,82.8506779 56.1582,83.0666779 56.1582,83.3996779 C56.1582,83.6516779 56.3022,83.8046779 56.7252,84.0296779 C57.6342,84.5156779 58.2282,84.8936779 58.5072,85.1726779 C58.7592,85.4246779 58.9122,85.8206779 58.9122,86.2346779 C58.9122,87.2966779 58.1382,87.9176779 56.8242,87.9176779 C56.6442,87.9176779 56.4642,87.9086779 56.2932,87.8816779 C55.8702,87.8276779 55.6722,87.7556779 55.0512,87.4676779 L54.6642,87.2876779 L55.1412,86.2436779 C55.5732,86.4776779 55.7532,86.5676779 55.9872,86.6576779 C56.2842,86.7656779 56.6082,86.8286779 56.8422,86.8286779 C57.3642,86.8286779 57.7062,86.5946779 57.7062,86.2346779 C57.7062,85.9826779 57.5712,85.8116779 57.1842,85.5956779 L56.2662,85.0736779 C55.2132,84.4706779 54.8892,84.0746779 54.8892,83.4266779 C54.8892,83.1296779 54.9792,82.8236779 55.1232,82.5986779 C55.2222,82.4456779 55.3752,82.2926779 55.5642,82.1576779 C55.9962,81.8606779 56.3652,81.7616779 57.0582,81.7616779 C57.4542,81.7616779 57.8052,81.8066779 58.1742,81.9146779 C58.4622,82.0046779 58.6242,82.0676779 59.0202,82.2566779 Z M64.0612,82.8236779 L62.2792,82.8236779 L62.2792,87.8006779 L61.1452,87.8006779 L61.1452,82.8236779 L59.3632,82.8236779 L59.3632,81.8606779 L64.0612,81.8606779 L64.0612,82.8236779 Z M68.3192,87.8006779 L67.1312,87.8006779 L66.6632,86.3336779 L64.6742,86.3336779 L64.1882,87.8006779 L63.0002,87.8006779 L65.1512,81.8606779 L66.1682,81.8606779 L68.3192,87.8006779 Z M66.3572,85.3706779 L65.6642,83.2196779 L64.9802,85.3706779 L66.3572,85.3706779 Z M71.9472,82.8236779 L70.1652,82.8236779 L70.1652,87.8006779 L69.0312,87.8006779 L69.0312,82.8236779 L67.2492,82.8236779 L67.2492,81.8606779 L71.9472,81.8606779 L71.9472,82.8236779 Z M73.9552,87.8006779 L72.8212,87.8006779 L72.8212,81.8606779 L73.9552,81.8606779 L73.9552,87.8006779 Z M81.3362,84.8306779 C81.3362,86.6396779 80.0312,87.9176779 78.1862,87.9176779 C76.3322,87.9176779 75.0272,86.6396779 75.0272,84.8306779 C75.0272,82.9946779 76.3052,81.7526779 78.1862,81.7526779 C80.0582,81.7526779 81.3362,82.9946779 81.3362,84.8306779 Z M80.1302,84.8306779 C80.1302,83.6336779 79.3022,82.7336779 78.1862,82.7336779 C77.0612,82.7336779 76.2332,83.6336779 76.2332,84.8306779 C76.2332,86.0366779 77.0612,86.9276779 78.1862,86.9276779 C79.3022,86.9276779 80.1302,86.0366779 80.1302,84.8306779 Z M87.5832,87.8546779 L86.3952,87.8546779 L83.8482,84.0116779 L83.6502,83.6516779 C83.6142,83.5796779 83.5962,83.5436779 83.5692,83.4446779 L83.5692,87.8006779 L82.4892,87.8006779 L82.4892,81.8606779 L83.7942,81.8606779 L86.1972,85.6226779 C86.3682,85.8926779 86.4402,86.0816779 86.5122,86.2706779 L86.5122,81.8606779 L87.5832,81.8606779 L87.5832,87.8546779 Z" id="GENBRUGSSTATION" fill="#FFFFFE"></path>
        <path d="M36.4869,52.2121 C36.1549,51.9831 35.8019,51.7641 35.4369,51.5591 C34.2789,50.9181 33.0599,50.4071 31.8819,49.9121 L31.0359,49.5551 C30.2209,49.2211 29.4769,48.9431 28.7569,48.7031 L28.5439,48.6351 C27.8349,48.4061 27.0329,48.1461 26.1269,48.3051 C24.9999,48.4801 24.2149,49.4981 24.0219,50.4151 C23.8859,51.0881 23.8909,51.6931 23.8959,52.2791 C23.8969,52.5011 23.8979,52.7191 23.8919,52.9361 L23.8919,52.9731 C23.8919,52.9791 23.8959,52.9841 23.8959,52.9911 C23.9159,53.4511 23.9909,53.8541 24.1289,54.2191 C24.3059,54.6881 24.6109,55.0921 24.9799,55.3541 C25.3249,55.6081 25.7429,55.7771 26.2249,55.8581 C26.5349,55.9071 26.8169,55.9361 27.1049,55.9651 L27.3139,55.9861 C28.8039,56.1311 30.2909,56.2321 31.5889,56.3131 L37.0679,56.1591 C37.0839,56.1591 37.0969,56.1521 37.1119,56.1491 C37.1299,56.1451 37.1499,56.1441 37.1659,56.1371 C37.1819,56.1301 37.1939,56.1191 37.2079,56.1101 C37.2229,56.1001 37.2379,56.0921 37.2499,56.0801 C37.2629,56.0681 37.2709,56.0531 37.2799,56.0391 C37.2899,56.0251 37.3009,56.0131 37.3079,55.9971 C37.3149,55.9811 37.3169,55.9631 37.3209,55.9451 C37.3249,55.9311 37.3309,55.9181 37.3319,55.9021 L37.4379,54.0881 C37.4359,53.8611 37.3929,53.6301 37.3079,53.3781 C37.1199,52.8521 36.8529,52.4711 36.4869,52.2121 Z M31.6149,55.4601 C30.3799,55.2941 28.9239,55.0901 27.4719,54.8441 L27.1329,54.7831 C26.5929,54.6901 26.0819,54.6021 25.7849,54.3261 C25.3909,54.0001 25.3299,53.4011 25.3479,52.8961 C25.3479,52.8931 25.3459,52.8911 25.3459,52.8891 C25.3419,52.6831 25.3329,52.4761 25.3249,52.2731 C25.2999,51.6991 25.2759,51.1561 25.3519,50.6991 C25.4649,50.0981 25.8559,49.6551 26.3769,49.5431 C26.9679,49.4041 27.6709,49.6061 28.4149,49.8191 C29.0939,50.0141 29.8259,50.2561 30.6469,50.5531 L31.4849,50.8681 C32.6709,51.3101 33.8959,51.7671 35.0239,52.3341 C35.3789,52.5151 35.7169,52.7071 36.0279,52.9051 C36.2449,53.0421 36.4389,53.3071 36.5779,53.6601 C36.6739,53.8781 36.6859,54.1291 36.6999,54.4191 C36.7049,54.5151 36.7099,54.6141 36.7169,54.7081 L36.7699,55.6051 L31.6149,55.4601 Z" id="Fill-4" fill="#FFFFFE"></path>
        <path d="M75.3203,52.8946 C75.3153,52.6916 75.3153,52.4866 75.3173,52.2786 C75.3223,51.6936 75.3273,51.0876 75.1903,50.4126 C74.9973,49.4976 74.2123,48.4806 73.0903,48.3056 C72.1833,48.1446 71.3773,48.4056 70.6683,48.6346 L70.4513,48.7046 C69.7393,48.9416 68.9963,49.2196 68.1733,49.5566 L67.3303,49.9126 C66.1523,50.4066 64.9333,50.9186 63.7743,51.5596 C63.4093,51.7646 63.0563,51.9836 62.7233,52.2146 C62.3593,52.4716 62.0913,52.8526 61.9033,53.3816 C61.8193,53.6306 61.7763,53.8616 61.7753,54.1066 L61.8803,55.9026 C61.8813,55.9176 61.8883,55.9306 61.8913,55.9456 C61.8953,55.9626 61.8973,55.9806 61.9043,55.9976 C61.9113,56.0116 61.9213,56.0236 61.9303,56.0366 C61.9403,56.0516 61.9493,56.0676 61.9623,56.0806 C61.9733,56.0916 61.9883,56.0986 62.0013,56.1076 C62.0163,56.1176 62.0293,56.1296 62.0463,56.1366 C62.0623,56.1436 62.0813,56.1456 62.0993,56.1486 C62.1143,56.1516 62.1283,56.1586 62.1443,56.1596 L67.6633,56.3116 C68.9223,56.2326 70.4093,56.1316 71.9013,55.9866 L72.1053,55.9646 C72.3953,55.9356 72.6773,55.9066 72.9903,55.8576 C73.4713,55.7766 73.8893,55.6076 74.2283,55.3576 C74.6013,55.0916 74.9063,54.6886 75.0833,54.2186 C75.2203,53.8586 75.2953,53.4606 75.3163,52.9596 C75.3163,52.9516 75.3203,52.9436 75.3203,52.9356 C75.3203,52.9236 75.3203,52.9106 75.3203,52.8976 C75.3203,52.8966 75.3203,52.8966 75.3203,52.8956 C75.3203,52.8946 75.3203,52.8946 75.3203,52.8946 M73.8883,52.2776 C73.8783,52.4956 73.8683,52.7176 73.8643,52.9386 L73.8643,52.9556 C73.8833,53.4006 73.8223,53.9996 73.4163,54.3366 C73.1303,54.6026 72.6203,54.6906 72.0793,54.7836 L71.7463,54.8426 C70.2943,55.0896 68.8353,55.2936 67.5983,55.4606 L62.4423,55.6046 L62.4963,54.7136 C62.5033,54.6146 62.5083,54.5166 62.5133,54.4206 C62.5263,54.1306 62.5373,53.8796 62.6383,53.6506 C62.7733,53.3066 62.9673,53.0416 63.1843,52.9056 C63.4993,52.7056 63.8383,52.5136 64.1883,52.3346 C65.3173,51.7666 66.5453,51.3086 67.7323,50.8656 L68.5633,50.5546 C69.3873,50.2556 70.1183,50.0156 70.7983,49.8186 C71.5433,49.6056 72.2453,49.4056 72.8403,49.5436 C73.3573,49.6556 73.7483,50.0976 73.8603,50.6936 C73.9373,51.1566 73.9133,51.7016 73.8883,52.2776" id="Fill-6" fill="#FFFFFE"></path>
        <path d="M71.5397,40.8015 C71.7077,40.7195 71.7907,40.5255 71.7337,40.3515 L69.1727,32.3155 C68.8647,31.4555 68.5217,30.5945 68.1887,29.7625 C68.0057,29.3025 67.8217,28.8425 67.6477,28.3935 C67.4577,27.8295 67.0797,27.0505 66.3537,26.5535 C65.8197,26.1765 65.1657,25.9205 64.2977,25.7515 C64.2957,25.7515 64.2937,25.7525 64.2917,25.7515 C64.2897,25.7515 64.2877,25.7495 64.2857,25.7495 C63.3977,25.6165 62.5097,25.4705 61.6207,25.3235 C58.7367,24.8475 55.7547,24.3555 52.7647,24.3335 L51.4707,24.3125 C48.0847,24.2535 44.5867,24.1915 41.1367,24.6245 L35.4007,25.4485 C34.1147,25.6055 33.1837,25.9585 32.4717,26.5585 C32.0487,26.9145 31.7097,27.3885 31.4907,27.9305 L29.8797,32.0015 L27.2657,40.1675 C27.2577,40.1815 27.2457,40.1915 27.2387,40.2055 C27.1927,40.3115 27.1887,40.4215 27.2007,40.5285 C27.2007,40.5325 27.2027,40.5365 27.2027,40.5405 C27.2127,40.6135 27.2327,40.6825 27.2667,40.7485 C27.2697,40.7545 27.2697,40.7625 27.2727,40.7695 C27.2807,40.7845 27.2947,40.7935 27.3037,40.8075 C27.3327,40.8505 27.3627,40.8915 27.4027,40.9265 C27.4367,40.9595 27.4767,40.9835 27.5177,41.0075 C27.5357,41.0175 27.5487,41.0345 27.5687,41.0435 C27.5917,41.0535 27.6147,41.0615 27.6377,41.0705 C27.6427,41.0725 27.6467,41.0765 27.6517,41.0785 C27.6537,41.0785 27.6557,41.0785 27.6577,41.0795 C29.4807,41.8565 31.3757,42.1665 33.0527,42.4405 C34.6957,42.6915 36.4467,42.8855 38.5647,43.0515 C41.8787,43.3105 45.4907,43.4365 49.6097,43.4385 C53.7217,43.3875 57.3297,43.2185 60.6397,42.9205 C62.7477,42.7295 64.4927,42.5145 66.1337,42.2445 C68.0947,41.9035 69.8547,41.5605 71.5397,40.8015 M60.5657,42.0445 C57.2657,42.3015 53.6807,42.4265 49.6097,42.4275 C45.5277,42.3775 41.9467,42.2095 38.6607,41.9135 C36.5817,41.7255 34.8607,41.5135 33.2447,41.2475 C31.6287,40.9685 30.0627,40.6525 28.6157,40.0845 L30.9577,32.3655 L32.4847,28.3255 C32.6367,27.9345 32.8617,27.6075 33.1537,27.3515 C33.7007,26.8755 34.4647,26.5845 35.5637,26.4345 L41.2627,25.5255 C44.6347,25.0475 48.1257,25.0505 51.4997,25.0595 L52.7577,25.0615 C55.7127,25.0365 58.6627,25.4775 61.5277,25.9045 C62.4177,26.0365 63.3077,26.1695 64.1977,26.2885 C64.9817,26.4525 65.5617,26.6845 66.0247,27.0205 C66.4987,27.3555 66.8547,27.8805 67.0857,28.5945 C67.2617,29.0645 67.4417,29.5335 67.6227,30.0015 C67.9407,30.8275 68.2697,31.6805 68.5597,32.5185 L70.9207,40.2505 C69.4067,40.8615 67.7917,41.1535 66.0037,41.4415 C64.3967,41.6875 62.6677,41.8795 60.5657,42.0445" id="Fill-8" fill="#FFFFFE"></path>
        <path d="M81.9413,43.8222 C81.8553,43.5732 81.7743,43.3232 81.6943,43.0722 C81.5083,42.4922 81.3153,41.8922 81.0513,41.3022 C80.4893,40.0482 79.9583,38.8622 77.9163,38.7872 C77.6193,38.7752 77.2093,38.7722 76.7713,38.7722 C76.3913,38.7722 75.9903,38.7742 75.6253,38.7772 C75.6183,38.7772 75.6103,38.7772 75.6033,38.7772 C75.4013,38.2052 75.2003,37.6332 75.0003,37.0622 C74.3453,35.1942 73.6683,33.2622 72.9563,31.3772 C72.1163,29.1562 70.9923,26.3032 70.4053,25.3222 C69.8633,24.4162 68.8053,23.5192 67.2603,22.6562 C66.1803,22.0522 62.8733,20.9612 60.6963,20.5952 C58.3973,20.2082 55.8453,19.9842 49.6063,19.9842 C43.3663,19.9842 40.8153,20.2082 38.5163,20.5952 C36.3393,20.9612 33.0323,22.0522 31.9523,22.6562 C30.4073,23.5192 29.3493,24.4162 28.8073,25.3222 C28.2193,26.3042 27.0963,29.1562 26.2563,31.3772 C25.5443,33.2622 24.8673,35.1942 24.2123,37.0622 C24.0123,37.6332 23.8113,38.2052 23.6093,38.7772 C23.6023,38.7772 23.5943,38.7772 23.5873,38.7772 C23.2223,38.7742 22.8203,38.7722 22.4413,38.7722 C22.0033,38.7722 21.5933,38.7752 21.2963,38.7872 C19.2543,38.8622 18.7233,40.0482 18.1613,41.3022 C17.8973,41.8922 17.7043,42.4922 17.5183,43.0722 C17.4383,43.3232 17.3573,43.5732 17.2713,43.8222 C16.9553,44.7322 17.0553,45.6182 17.5523,46.3162 C18.0533,47.0212 18.9203,47.4422 19.8693,47.4422 C19.9463,47.4422 20.0243,47.4392 20.1033,47.4342 C20.2583,47.4232 20.4233,47.4162 20.6143,47.4132 C20.3873,48.2552 20.2833,49.1542 20.2873,50.1842 C20.2953,51.9742 20.3013,53.7652 20.3053,55.5552 C20.3163,60.6362 20.3073,64.7852 20.2753,68.6142 C20.2653,69.7182 20.4523,71.3002 22.1743,72.2722 C22.3383,72.3652 22.5233,72.4142 22.7113,72.4142 L32.5583,72.4142 C32.7383,72.4142 32.9163,72.3692 33.0753,72.2842 C34.5103,71.5122 35.2003,70.2042 35.1263,68.3962 C35.1033,67.8452 35.1023,66.9722 35.1073,66.2792 L64.1053,66.2792 C64.1093,66.9722 64.1093,67.8452 64.0863,68.3962 C64.0123,70.2042 64.7023,71.5122 66.1373,72.2842 C66.2963,72.3692 66.4743,72.4142 66.6543,72.4142 L76.5013,72.4142 C76.6893,72.4142 76.8743,72.3652 77.0383,72.2722 C78.7603,71.3002 78.9463,69.7182 78.9373,68.6142 C78.9053,64.7852 78.8963,60.6362 78.9073,55.5552 C78.9113,53.7652 78.9173,51.9742 78.9243,50.1842 C78.9293,49.1542 78.8253,48.2552 78.5983,47.4132 C78.7883,47.4162 78.9543,47.4232 79.1093,47.4342 C79.1883,47.4392 79.2653,47.4422 79.3433,47.4422 C80.2923,47.4422 81.1583,47.0212 81.6603,46.3162 C82.1573,45.6182 82.2573,44.7322 81.9413,43.8222 M77.1693,45.6102 C76.9963,45.5732 76.8193,45.5912 76.6653,45.6782 C76.5233,45.7562 76.4243,45.8832 76.3603,46.0302 C76.3503,46.0512 76.3373,46.0692 76.3293,46.0912 C76.3263,46.0992 76.3193,46.1062 76.3173,46.1142 C76.3073,46.1472 76.3133,46.1812 76.3083,46.2142 C76.3003,46.2632 76.2823,46.3092 76.2843,46.3612 C76.2893,46.4862 76.3343,46.5992 76.3973,46.7042 C76.7343,47.3182 76.9773,47.9762 77.1183,48.6642 C77.2663,49.3542 77.2963,50.0702 77.3273,50.8272 C77.3273,50.8282 77.3303,50.8952 77.3303,50.8952 L77.5423,55.5612 L77.3673,67.7422 C77.3623,67.9102 77.3603,68.0792 77.3603,68.2462 C77.3573,68.7462 77.3543,69.2182 77.2293,69.6432 C77.1073,70.1172 76.8073,70.5062 76.3623,70.7762 L66.8543,70.6172 C66.5263,70.4052 66.2883,70.1432 66.1453,69.8372 C65.9853,69.5032 65.9153,69.0722 65.9393,68.5512 L65.9913,65.9042 L74.6553,64.7292 C74.7983,64.7092 74.9023,64.5822 74.8913,64.4372 C74.8793,64.2942 74.7623,64.1722 74.6133,64.1852 L65.2683,64.3672 C65.2353,64.3632 65.2103,64.3512 65.1753,64.3482 C65.1433,64.3492 65.1153,64.3642 65.0843,64.3682 L49.6063,64.3682 L34.1263,64.3682 C34.0913,64.3642 34.0613,64.3482 34.0263,64.3482 L34.0103,64.3482 C33.9813,64.3492 33.9543,64.3632 33.9253,64.3672 L24.5993,64.1852 C24.4353,64.1802 24.3343,64.2942 24.3223,64.4372 C24.3103,64.5822 24.4143,64.7092 24.5573,64.7292 L33.2213,65.9042 L33.2743,68.5582 C33.2973,69.0742 33.2273,69.5042 33.0663,69.8402 C32.9233,70.1442 32.6863,70.4052 32.3573,70.6172 L22.8503,70.7762 C22.4043,70.5062 22.1053,70.1162 21.9813,69.6352 C21.8583,69.2172 21.8553,68.7452 21.8523,68.2452 C21.8513,68.0782 21.8503,67.9092 21.8453,67.7462 L21.6703,55.5612 L21.8853,50.8392 C21.9153,50.0772 21.9453,49.3572 22.0943,48.6612 C22.2363,47.9702 22.4813,47.3072 22.8223,46.6892 C22.8873,46.5752 22.9333,46.4502 22.9283,46.3102 C22.9263,46.2532 22.9053,46.2052 22.8913,46.1532 C22.8823,46.1122 22.8793,46.0702 22.8633,46.0322 C22.8623,46.0312 22.8613,46.0302 22.8613,46.0292 C22.7903,45.8632 22.6603,45.7212 22.4813,45.6452 C22.3523,45.5912 22.2143,45.5882 22.0803,45.6092 C21.8813,45.6162 21.6813,45.6202 21.4793,45.6232 C21.1173,45.6292 20.7503,45.6342 20.3703,45.6562 L19.9213,45.6912 C19.8123,45.7002 19.7113,45.6992 19.6143,45.6832 C19.4133,45.6572 19.2303,45.5872 19.0813,45.4782 C18.8033,45.2802 18.6923,44.9002 18.7893,44.4982 L19.2783,42.8092 C19.4313,42.3012 19.6343,41.7802 19.9003,41.2092 C20.1293,40.6932 20.4613,40.3912 20.8993,40.3122 C21.2453,40.2392 21.6193,40.2322 22.0153,40.2242 C22.2173,40.2212 22.4193,40.2172 22.6093,40.2052 L24.3893,40.1462 C24.4373,40.1442 24.4803,40.1262 24.5193,40.1022 C24.5283,40.0972 24.5353,40.0912 24.5443,40.0852 C24.5833,40.0542 24.6153,40.0172 24.6333,39.9692 C24.6343,39.9682 24.6353,39.9682 24.6353,39.9672 L26.9413,33.6862 C27.6863,31.6062 28.5133,29.5222 29.3973,27.4942 L29.4343,27.4112 C29.6443,26.9462 29.8613,26.4652 30.1133,26.0512 C30.3483,25.6892 30.6873,25.3422 31.1803,24.9602 C32.0773,24.2742 33.0213,23.7652 33.9933,23.4442 C36.3413,22.6162 38.4293,22.1222 40.3793,21.9342 C42.5553,21.6992 44.7563,21.6652 47.0053,21.6492 C49.4413,21.6422 51.6253,21.6692 53.6723,21.7332 C56.1383,21.8162 58.1993,21.9462 60.2413,22.3072 C61.1633,22.4662 62.1363,22.7122 63.3923,23.1002 C64.5123,23.4642 65.5083,23.8012 66.3973,24.2582 C67.1333,24.6502 67.7233,25.0342 68.1943,25.4292 C68.5063,25.6972 68.7213,25.9242 68.8733,26.1452 C69.0453,26.3982 69.2073,26.7252 69.3833,27.0812 C70.0193,28.4072 70.5943,29.7812 71.2263,31.3092 C71.6023,32.2342 71.9593,33.1672 72.3163,34.1012 C72.5133,34.6122 72.7083,35.1242 72.9073,35.6342 L74.5783,39.9712 C74.5783,39.9722 74.5793,39.9722 74.5793,39.9722 C74.5973,40.0192 74.6303,40.0562 74.6693,40.0862 C74.6783,40.0922 74.6853,40.0982 74.6943,40.1032 C74.7323,40.1272 74.7753,40.1442 74.8233,40.1462 L76.5963,40.2042 C76.7933,40.2172 76.9953,40.2212 77.1963,40.2242 C77.5933,40.2322 77.9673,40.2392 78.3203,40.3132 C78.7513,40.3912 79.0843,40.6932 79.3133,41.2142 C79.5783,41.7782 79.7813,42.2992 79.9333,42.8062 L80.4203,44.4862 C80.5213,44.9012 80.4103,45.2802 80.1273,45.4802 C79.9823,45.5872 79.7983,45.6582 79.5933,45.6842 C79.5013,45.6982 79.4003,45.6992 79.2903,45.6912 L78.8373,45.6562 C78.4623,45.6342 78.0953,45.6292 77.7333,45.6232 C77.5433,45.6202 77.3563,45.6162 77.1693,45.6102" id="Fill-10" fill="#FFFFFE"></path>
    </g>
</svg>