<?xml version="1.0" encoding="UTF-8"?>
<svg width="100px" height="100px" viewBox="0 0 100 100" version="1.1" xmlns="http://www.w3.org/2000/svg" xmlns:xlink="http://www.w3.org/1999/xlink">
    <!-- Generator: Sketch 51.2 (57519) - http://www.bohemiancoding.com/sketch -->
    <title>papirpap</title>
    <desc>Created with Sketch.</desc>
    <defs></defs>
    <g id="papirpap" stroke="none" stroke-width="1" fill="none" fill-rule="evenodd">
        <path d="M11.3386,-1.42108547e-14 C11.3386,-1.42108547e-14 -0.0004,-1.42108547e-14 -0.0004,11.339 L-0.0004,87.874 C-0.0004,87.874 -0.0004,99.213 11.3386,99.213 L87.8736,99.213 C87.8736,99.213 99.2126,99.213 99.2126,87.874 L99.2126,11.339 C99.2126,11.339 99.2126,-1.42108547e-14 87.8736,-1.42108547e-14 L11.3386,-1.42108547e-14 Z" id="Fill-36" fill="#0091CA"></path>
        <path d="M39.4637,24.631 L18.1617,24.637 C18.1457,24.637 18.1297,24.637 18.1147,24.639 C17.9797,24.646 17.8477,24.672 17.7107,24.719 L17.6277,24.75 C17.6127,24.756 17.5977,24.762 17.5827,24.769 C17.4137,24.846 17.2657,24.947 17.1427,25.071 L8.9447,33.269 C8.8217,33.393 8.7197,33.539 8.6447,33.706 C8.6267,33.742 8.6107,33.784 8.5877,33.854 C8.5557,33.946 8.5347,34.035 8.5257,34.115 C8.5117,34.174 8.5047,34.236 8.5047,34.297 L8.5047,65.409 C8.5047,66.237 9.1787,66.91 10.0057,66.91 L39.4637,66.91 C40.2917,66.91 40.9637,66.237 40.9637,65.409 L40.9637,26.132 C40.9637,25.304 40.2917,24.631 39.4637,24.631 M11.3287,34.676 C11.5637,34.693 11.7997,34.71 12.0417,34.73 C12.7267,34.771 13.4117,34.808 14.0937,34.831 C14.5527,34.853 15.0117,34.863 15.4697,34.873 L18.2127,34.907 C18.5287,34.904 18.7837,34.644 18.7807,34.328 L18.7617,32.274 L18.7457,31.622 C18.7357,31.155 18.7257,30.687 18.7037,30.223 C18.6807,29.538 18.6437,28.853 18.6027,28.162 C18.5827,27.927 18.5657,27.692 18.5497,27.457 C18.5227,27.093 18.4947,26.728 18.4577,26.364 L39.1087,26.483 L38.8897,64.832 L10.5787,64.832 L10.3327,34.594 C10.6647,34.625 10.9967,34.652 11.3287,34.676 M10.7597,34.027 L17.9107,26.758 C17.8917,26.992 17.8747,27.225 17.8577,27.459 C17.8407,27.693 17.8237,27.928 17.8047,28.168 C17.7637,28.853 17.7267,29.538 17.7037,30.22 C17.6817,30.687 17.6717,31.154 17.6617,31.622 L17.6317,33.758 L15.4577,33.788 C15.0037,33.798 14.5487,33.808 14.0967,33.829 C13.4117,33.852 12.7267,33.889 12.0357,33.93 C11.7997,33.95 11.5647,33.967 11.3287,33.984 C11.1387,33.998 10.9497,34.012 10.7597,34.027" id="Fill-39" fill="#FFFFFE"></path>
        <path d="M14.909,46.3478 L14.919,46.3478 L34.558,46.0018 C34.684,45.9988 34.785,45.8968 34.785,45.7708 C34.785,45.6448 34.684,45.5418 34.558,45.5398 L14.919,45.1928 C14.916,45.1928 14.901,45.1928 14.899,45.1928 C14.58,45.1988 14.326,45.4628 14.332,45.7808 C14.337,46.0958 14.595,46.3478 14.909,46.3478" id="Fill-41" fill="#FFFFFE"></path>
        <path d="M14.909,51.4285 L14.919,51.4285 L34.558,51.0825 C34.684,51.0795 34.785,50.9775 34.785,50.8515 C34.785,50.7255 34.684,50.6225 34.558,50.6205 L14.919,50.2735 C14.916,50.2735 14.901,50.2735 14.899,50.2735 C14.58,50.2795 14.326,50.5435 14.332,50.8615 C14.337,51.1765 14.595,51.4285 14.909,51.4285" id="Fill-43" fill="#FFFFFE"></path>
        <path d="M14.909,56.509 L14.919,56.509 L34.558,56.163 C34.684,56.16 34.785,56.058 34.785,55.932 C34.785,55.806 34.684,55.703 34.558,55.701 L14.919,55.354 C14.916,55.354 14.901,55.354 14.899,55.354 C14.58,55.36 14.326,55.624 14.332,55.942 C14.334,56.096 14.397,56.24 14.508,56.347 C14.616,56.452 14.759,56.509 14.909,56.509" id="Fill-45" fill="#FFFFFE"></path>
        <path d="M14.909,41.2673 L14.919,41.2673 L34.558,40.9213 C34.684,40.9183 34.785,40.8163 34.785,40.6903 C34.785,40.5643 34.684,40.4613 34.558,40.4593 L14.919,40.1123 C14.916,40.1123 14.901,40.1123 14.899,40.1123 C14.58,40.1183 14.326,40.3823 14.332,40.7003 C14.337,41.0153 14.595,41.2673 14.909,41.2673" id="Fill-47" fill="#FFFFFE"></path>
        <path d="M91.8936,44.1683 L86.4056,35.5873 C86.3916,35.5653 86.3776,35.5453 86.3616,35.5253 L86.2936,35.4383 C86.2836,35.4243 86.2716,35.4113 86.2596,35.3973 C86.2136,35.3443 86.1626,35.2983 86.0906,35.2403 C86.0696,35.2253 86.0486,35.2103 86.0276,35.1963 L86.0296,35.1933 L71.2966,25.9683 C71.2716,25.9523 71.2446,25.9373 71.2166,25.9243 L71.1016,25.8703 C71.0836,25.8613 71.0656,25.8533 71.0456,25.8453 C70.9196,25.7963 70.7896,25.7653 70.6626,25.7533 C70.6086,25.7443 70.5506,25.7423 70.4956,25.7443 L70.4086,25.7503 C70.2396,25.7613 70.0896,25.7963 69.9646,25.8533 L53.3836,32.9603 C53.3786,32.9633 53.3576,32.9723 53.3426,32.9793 L53.3266,32.9863 C53.2546,33.0223 53.1946,33.0593 53.1456,33.0963 L53.0726,33.1473 C53.0506,33.1623 53.0306,33.1783 53.0116,33.1943 C52.9756,33.2253 52.9386,33.2593 52.8786,33.3253 C52.8536,33.3523 52.8266,33.3843 52.8026,33.4143 C52.7856,33.4363 52.7686,33.4583 52.7536,33.4823 L47.2396,42.0963 C46.8286,42.7403 46.9716,43.5803 47.5726,44.0503 L52.4926,47.9043 L52.4926,55.6063 C52.4926,56.0493 52.6886,56.4643 53.0306,56.7453 L66.3786,67.7023 C66.4086,67.7323 66.4736,67.7783 66.5316,67.8123 C66.5576,67.8293 66.5866,67.8433 66.6146,67.8563 L66.7586,67.9193 C66.7846,67.9303 66.8116,67.9413 66.8386,67.9503 C66.9906,67.9993 67.1386,68.0223 67.2886,68.0223 C67.4836,68.0223 67.6766,67.9823 67.8606,67.9033 C67.8796,67.8953 67.8976,67.8873 67.9166,67.8773 L85.8466,58.5403 C86.3356,58.2853 86.6386,57.7843 86.6386,57.2333 L86.6386,48.5013 L91.2836,46.2913 C91.6686,46.1083 91.9536,45.7703 92.0676,45.3633 C92.1846,44.9603 92.1206,44.5253 91.8936,44.1683 Z M49.2066,42.7543 L53.9486,34.7773 L66.9966,44.4293 L62.1016,52.8553 L54.4106,46.8313 L53.5296,46.1413 L49.2066,42.7543 Z M61.8356,54.0553 C61.8836,54.1103 61.9406,54.1563 62.0076,54.1903 C62.0876,54.2293 62.1716,54.2483 62.2546,54.2483 C62.3806,54.2483 62.5006,54.2013 62.5996,54.1223 C62.6056,54.1183 62.6106,54.1133 62.6166,54.1083 C62.6406,54.0873 62.6636,54.0653 62.6836,54.0403 C62.6876,54.0353 62.6936,54.0313 62.6976,54.0263 C62.7026,54.0193 62.7036,54.0113 62.7076,54.0053 C62.7226,53.9843 62.7406,53.9653 62.7526,53.9413 L67.0436,45.3543 C67.0156,46.4863 66.9886,47.6183 66.9666,48.7503 L66.9436,49.9083 C66.9046,51.6263 66.8846,53.3433 66.8646,55.0603 L66.7926,61.0023 L66.7716,65.4433 L60.9766,60.6503 L54.4826,55.3593 C54.4796,54.8313 54.4786,54.3033 54.4766,53.7753 C54.4736,52.6103 54.4706,51.4453 54.4526,50.2813 L54.4276,48.2533 L61.8356,54.0553 Z M54.7206,34.4133 L69.9756,28.0413 L70.2886,42.7523 L67.3176,44.1113 L54.7206,34.4133 Z M72.5386,52.9643 L67.6056,44.4733 L84.9326,36.9203 L85.1706,36.8213 L89.8646,44.7203 L85.5796,46.7593 L84.7466,47.1553 L72.5386,52.9643 Z M84.7326,48.3903 C84.7246,49.0453 84.7186,49.7003 84.7096,50.3553 C84.6836,52.5073 84.6556,54.7283 84.6526,56.9203 L75.9716,61.4023 L67.8066,65.6903 L67.7836,61.0013 L67.7136,55.2473 C67.6946,53.4973 67.6736,51.6883 67.6326,49.9093 L67.6116,48.8333 C67.5896,47.6733 67.5616,46.5133 67.5326,45.3543 L71.8146,53.9203 C71.8146,53.9213 71.8146,53.9223 71.8146,53.9223 C71.8156,53.9243 71.8166,53.9253 71.8166,53.9263 L71.8246,53.9413 C71.8296,53.9523 71.8376,53.9673 71.8406,53.9723 C71.8546,53.9953 71.8726,54.0133 71.8886,54.0333 C71.8956,54.0413 71.9006,54.0503 71.9086,54.0583 C72.0156,54.1793 72.1656,54.2483 72.3216,54.2483 C72.4166,54.2483 72.5126,54.2243 72.5996,54.1733 C72.6086,54.1673 72.6136,54.1583 72.6226,54.1523 L84.7326,48.3903 Z M70.7426,42.5453 L71.0466,28.1943 L84.3196,36.3333 L70.7426,42.5453 Z" id="Fill-49" fill="#FFFFFE"></path>
        <path d="M18.5866,79.4472804 C18.5866,80.0312804 18.3786,80.5352804 17.9866,80.8712804 C17.6106,81.1912804 17.1466,81.3272804 16.4266,81.3272804 C16.2266,81.3272804 16.1146,81.3192804 15.9386,81.3032804 L15.9386,83.1112804 L14.9306,83.1112804 L14.9306,77.8312804 L16.7386,77.8312804 C17.4266,77.8312804 17.8106,77.9512804 18.1386,78.2632804 C18.4346,78.5592804 18.5866,78.9592804 18.5866,79.4472804 Z M17.5466,79.5272804 C17.5466,78.9512804 17.2666,78.6872804 16.6426,78.6872804 L15.9386,78.6872804 L15.9386,80.4472804 L16.1946,80.4552804 C16.3066,80.4552804 16.3786,80.4632804 16.4186,80.4632804 C17.2026,80.4632804 17.5466,80.1752804 17.5466,79.5272804 Z M23.2126,83.1112804 L22.1566,83.1112804 L21.7406,81.8072804 L19.9726,81.8072804 L19.5406,83.1112804 L18.4846,83.1112804 L20.3966,77.8312804 L21.3006,77.8312804 L23.2126,83.1112804 Z M21.4686,80.9512804 L20.8526,79.0392804 L20.2446,80.9512804 L21.4686,80.9512804 Z M27.6146,79.4472804 C27.6146,80.0312804 27.4066,80.5352804 27.0146,80.8712804 C26.6386,81.1912804 26.1746,81.3272804 25.4546,81.3272804 C25.2546,81.3272804 25.1426,81.3192804 24.9666,81.3032804 L24.9666,83.1112804 L23.9586,83.1112804 L23.9586,77.8312804 L25.7666,77.8312804 C26.4546,77.8312804 26.8386,77.9512804 27.1666,78.2632804 C27.4626,78.5592804 27.6146,78.9592804 27.6146,79.4472804 Z M26.5746,79.5272804 C26.5746,78.9512804 26.2946,78.6872804 25.6706,78.6872804 L24.9666,78.6872804 L24.9666,80.4472804 L25.2226,80.4552804 C25.3346,80.4552804 25.4066,80.4632804 25.4466,80.4632804 C26.2306,80.4632804 26.5746,80.1752804 26.5746,79.5272804 Z M29.4006,83.1112804 L28.3926,83.1112804 L28.3926,77.8312804 L29.4006,77.8312804 L29.4006,83.1112804 Z M34.6506,83.1112804 L33.5466,83.1112804 L32.3386,80.9992804 L31.8346,80.9992804 L31.8346,83.1112804 L30.8266,83.1112804 L30.8266,77.8312804 L32.5866,77.8312804 C33.3546,77.8312804 33.7066,77.9272804 34.0186,78.2232804 C34.3066,78.4872804 34.4506,78.8712804 34.4506,79.3672804 C34.4506,79.7752804 34.3546,80.1032804 34.1626,80.3592804 C33.9626,80.6152804 33.7786,80.7272804 33.3386,80.8472804 L34.6506,83.1112804 Z M33.4106,79.3912804 C33.4106,78.8872804 33.1466,78.6872804 32.4906,78.6872804 L31.8346,78.6872804 L31.8346,80.1432804 L32.4906,80.1432804 C33.1306,80.1432804 33.4106,79.9192804 33.4106,79.3912804 Z" id="PAPIR" fill="#FFFFFE"></path>
        <path d="M55.6337,78.1832804 L55.2337,79.0872804 C54.6737,78.8392804 54.2177,78.7112804 53.8657,78.7112804 C53.3937,78.7112804 53.0897,78.9032804 53.0897,79.1992804 C53.0897,79.4232804 53.2177,79.5592804 53.5937,79.7592804 C54.4017,80.1912804 54.9297,80.5272804 55.1777,80.7752804 C55.4017,80.9992804 55.5377,81.3512804 55.5377,81.7192804 C55.5377,82.6632804 54.8497,83.2152804 53.6817,83.2152804 C53.5217,83.2152804 53.3617,83.2072804 53.2097,83.1832804 C52.8337,83.1352804 52.6577,83.0712804 52.1057,82.8152804 L51.7617,82.6552804 L52.1857,81.7272804 C52.5697,81.9352804 52.7297,82.0152804 52.9377,82.0952804 C53.2017,82.1912804 53.4897,82.2472804 53.6977,82.2472804 C54.1617,82.2472804 54.4657,82.0392804 54.4657,81.7192804 C54.4657,81.4952804 54.3457,81.3432804 54.0017,81.1512804 L53.1857,80.6872804 C52.2497,80.1512804 51.9617,79.7992804 51.9617,79.2232804 C51.9617,78.9592804 52.0417,78.6872804 52.1697,78.4872804 C52.2577,78.3512804 52.3937,78.2152804 52.5617,78.0952804 C52.9457,77.8312804 53.2737,77.7432804 53.8897,77.7432804 C54.2417,77.7432804 54.5537,77.7832804 54.8817,77.8792804 C55.1377,77.9592804 55.2817,78.0152804 55.6337,78.1832804 Z M59.3637663,82.0067666 C59.3957221,81.7592361 59.4117332,81.7271919 59.4597,81.5992804 L60.9237,77.8312804 L62.1317,77.8312804 L62.1317,83.1112804 L61.1717,83.1112804 L61.1717,79.2392804 C61.1317,79.5112804 61.1397,79.5512804 60.9717,79.9912804 L59.7637,83.1112804 L58.8597,83.1112804 L57.7557,80.0472804 C57.6437,79.7432804 57.6357,79.6552804 57.5557,79.2072804 L57.5557,83.1112804 L56.6437,83.1112804 L56.6437,77.8312804 L57.8517,77.8312804 L59.2597,81.5992804 C59.3128644,81.7435837 59.3371874,81.801363 59.3600501,81.9779753 L59.3637663,82.0067666 Z M67.6537,83.1112804 L66.5977,83.1112804 L66.1817,81.8072804 L64.4137,81.8072804 L63.9817,83.1112804 L62.9257,83.1112804 L64.8377,77.8312804 L65.7417,77.8312804 L67.6537,83.1112804 Z M65.9097,80.9512804 L65.2937,79.0392804 L64.6857,80.9512804 L65.9097,80.9512804 Z M66.0457,76.7832804 C66.0457,77.2072804 65.7017,77.5512804 65.2777,77.5512804 C64.8457,77.5512804 64.5017,77.2072804 64.5017,76.7832804 C64.5017,76.3592804 64.8457,76.0072804 65.2777,76.0072804 C65.7017,76.0072804 66.0457,76.3592804 66.0457,76.7832804 Z M65.6057,76.7832804 C65.6057,76.5992804 65.4537,76.4472804 65.2777,76.4472804 C65.0937,76.4472804 64.9417,76.5992804 64.9417,76.7832804 C64.9417,76.9672804 65.0937,77.1112804 65.2777,77.1112804 C65.4537,77.1112804 65.6057,76.9672804 65.6057,76.7832804 Z M70.8797,78.6872804 L69.2957,78.6872804 L69.2957,83.1112804 L68.2877,83.1112804 L68.2877,78.6872804 L66.7037,78.6872804 L66.7037,77.8312804 L70.8797,77.8312804 L70.8797,78.6872804 Z M77.3077,79.4472804 C77.3077,80.0312804 77.0997,80.5352804 76.7077,80.8712804 C76.3317,81.1912804 75.8677,81.3272804 75.1477,81.3272804 C74.9477,81.3272804 74.8357,81.3192804 74.6597,81.3032804 L74.6597,83.1112804 L73.6517,83.1112804 L73.6517,77.8312804 L75.4597,77.8312804 C76.1477,77.8312804 76.5317,77.9512804 76.8597,78.2632804 C77.1557,78.5592804 77.3077,78.9592804 77.3077,79.4472804 Z M76.2677,79.5272804 C76.2677,78.9512804 75.9877,78.6872804 75.3637,78.6872804 L74.6597,78.6872804 L74.6597,80.4472804 L74.9157,80.4552804 C75.0277,80.4552804 75.0997,80.4632804 75.1397,80.4632804 C75.9237,80.4632804 76.2677,80.1752804 76.2677,79.5272804 Z M81.9337,83.1112804 L80.8777,83.1112804 L80.4617,81.8072804 L78.6937,81.8072804 L78.2617,83.1112804 L77.2057,83.1112804 L79.1177,77.8312804 L80.0217,77.8312804 L81.9337,83.1112804 Z M80.1897,80.9512804 L79.5737,79.0392804 L78.9657,80.9512804 L80.1897,80.9512804 Z M86.3357,79.4472804 C86.3357,80.0312804 86.1277,80.5352804 85.7357,80.8712804 C85.3597,81.1912804 84.8957,81.3272804 84.1757,81.3272804 C83.9757,81.3272804 83.8637,81.3192804 83.6877,81.3032804 L83.6877,83.1112804 L82.6797,83.1112804 L82.6797,77.8312804 L84.4877,77.8312804 C85.1757,77.8312804 85.5597,77.9512804 85.8877,78.2632804 C86.1837,78.5592804 86.3357,78.9592804 86.3357,79.4472804 Z M85.2957,79.5272804 C85.2957,78.9512804 85.0157,78.6872804 84.3917,78.6872804 L83.6877,78.6872804 L83.6877,80.4472804 L83.9437,80.4552804 C84.0557,80.4552804 84.1277,80.4632804 84.1677,80.4632804 C84.9517,80.4632804 85.2957,80.1752804 85.2957,79.5272804 Z" id="SMÅT-PAP" fill="#FFFFFE"></path>
    </g>
</svg>