<?xml version="1.0" encoding="UTF-8"?>
<svg width="42px" height="42px" viewBox="0 0 42 42" version="1.1" xmlns="http://www.w3.org/2000/svg" xmlns:xlink="http://www.w3.org/1999/xlink">
    <!-- Generator: Sketch 51.2 (57519) - http://www.bohemiancoding.com/sketch -->
    <title>search</title>
    <desc>Created with Sketch.</desc>
    <defs></defs>
    <g id="icons" stroke="none" stroke-width="1" fill="none" fill-rule="evenodd">
        <path d="M41.2148438,38.4355469 C41.6380229,38.8587261 41.8496094,39.3551404 41.8496094,39.9248047 C41.8496094,40.494469 41.6380229,40.9746074 41.2148438,41.3652344 C41.0195303,41.5931001 40.791668,41.7558589 40.53125,41.8535156 C40.270832,41.9511724 40.010418,42 39.75,42 C39.489582,42 39.229168,41.9511724 38.96875,41.8535156 C38.708332,41.7558589 38.4804697,41.5931001 38.2851562,41.3652344 L28.8125,31.9414062 C27.3150967,33.1458394 25.6305432,34.0817024 23.7587891,34.7490234 C21.8870349,35.4163445 19.9257915,35.75 17.875,35.75 C15.4335815,35.75 13.1386826,35.2779995 10.9902344,34.3339844 C8.84178613,33.4225215 6.96192212,32.1611409 5.35058594,30.5498047 C3.73924976,28.9384685 2.47786914,27.0586045 1.56640625,24.9101562 C0.622391113,22.761708 0.150390625,20.4668091 0.150390625,18.0253906 C0.150390625,15.5839722 0.622391113,13.2890732 1.56640625,11.140625 C2.47786914,8.99217676 3.73924976,7.12045068 5.35058594,5.52539062 C6.96192212,3.93033057 8.84178613,2.66081201 10.9902344,1.71679688 C13.1386826,0.805333984 15.4335815,0.349609375 17.875,0.349609375 C20.3164185,0.349609375 22.6113174,0.805333984 24.7597656,1.71679688 C26.9082139,2.66081201 28.7880779,3.93033057 30.3994141,5.52539062 C32.0107502,7.12045068 33.2721309,8.99217676 34.1835938,11.140625 C35.1276089,13.2890732 35.5996094,15.5839722 35.5996094,18.0253906 C35.5996094,20.1087344 35.2578159,22.0781157 34.5742188,23.9335938 C33.8906216,25.7890718 32.9628965,27.4817632 31.7910156,29.0117188 L41.2148438,38.4355469 Z M4.34960938,18.0253906 C4.34960938,19.9134209 4.70767871,21.6712158 5.42382812,23.2988281 C6.10742529,24.9589927 7.06770215,26.399408 8.3046875,27.6201172 C9.54167285,28.8408264 10.9739502,29.8092412 12.6015625,30.5253906 C14.2617271,31.24154 16.019522,31.5996094 17.875,31.5996094 C19.730478,31.5996094 21.4719971,31.249678 23.0996094,30.5498047 C24.7272217,29.8499314 26.1432231,28.8977925 27.3476562,27.6933594 C27.3802085,27.6933594 27.4046223,27.6852214 27.4208984,27.6689453 C27.4371746,27.6526692 27.4453125,27.6282554 27.4453125,27.5957031 L27.4697266,27.5712891 C27.4860027,27.5550129 27.5104165,27.546875 27.5429688,27.546875 C28.7474019,26.3098896 29.6914028,24.8776123 30.375,23.25 C31.0585972,21.6223877 31.4003906,19.8808687 31.4003906,18.0253906 C31.4003906,16.1699126 31.0423213,14.4283936 30.3261719,12.8007812 C29.6425747,11.1406167 28.6822979,9.70020142 27.4453125,8.47949219 C26.2083271,7.25878296 24.7760498,6.29036816 23.1484375,5.57421875 C21.4882729,4.85806934 19.730478,4.5 17.875,4.5 C16.019522,4.5 14.2617271,4.85806934 12.6015625,5.57421875 C10.9739502,6.29036816 9.54167285,7.25878296 8.3046875,8.47949219 C7.06770215,9.70020142 6.10742529,11.1406167 5.42382812,12.8007812 C4.70767871,14.4283936 4.34960938,16.1699126 4.34960938,18.0253906 Z" id="search" fill="#333333"></path>
    </g>
</svg>