<?xml version="1.0" encoding="UTF-8"?>
<svg width="100px" height="100px" viewBox="0 0 100 100" version="1.1" xmlns="http://www.w3.org/2000/svg" xmlns:xlink="http://www.w3.org/1999/xlink">
    <!-- Generator: Sketch 51.2 (57519) - http://www.bohemiancoding.com/sketch -->
    <title>glasplastmetal</title>
    <desc>Created with Sketch.</desc>
    <defs></defs>
    <g id="glasplastmetal" stroke="none" stroke-width="1" fill="none" fill-rule="evenodd">
        <path d="M11.3386,-1.42108547e-14 C11.3386,-1.42108547e-14 -0.0004,-1.42108547e-14 -0.0004,11.339 L-0.0004,87.874 C-0.0004,87.874 -0.0004,99.213 11.3386,99.213 L87.8736,99.213 C87.8736,99.213 99.2126,99.213 99.2126,87.874 L99.2126,11.339 C99.2126,11.339 99.2126,-1.42108547e-14 87.8736,-1.42108547e-14 L11.3386,-1.42108547e-14 Z" id="Fill-23" fill="#EB8D2D"></path>
        <path d="M15.3539,89.1570804 L14.8179,89.2850804 C14.2579,89.4130804 13.9299,89.4610804 13.4899,89.4610804 C11.7379,89.4610804 10.5219,88.3410804 10.5219,86.7090804 C10.5219,85.9090804 10.8259,85.2130804 11.3939,84.6930804 C11.9379,84.1970804 12.5459,83.9890804 13.4579,83.9890804 C13.8419,83.9890804 14.2259,84.0290804 14.5619,84.1090804 C14.8179,84.1730804 14.9779,84.2290804 15.3459,84.3890804 L15.1059,85.2290804 C14.9139,85.1570804 14.7699,85.1090804 14.6739,85.0770804 C14.2979,84.9490804 13.9219,84.8850804 13.5859,84.8850804 C12.4019,84.8850804 11.5779,85.6130804 11.5779,86.6610804 C11.5779,87.7410804 12.4819,88.5650804 13.6579,88.5650804 C13.8979,88.5650804 14.0339,88.5410804 14.3459,88.4530804 L14.3459,86.9970804 L15.3539,86.9970804 L15.3539,89.1570804 Z M19.5959,89.3570804 L16.4279,89.3570804 L16.4279,84.0770804 L17.4359,84.0770804 L17.4359,88.5010804 L19.5959,88.5010804 L19.5959,89.3570804 Z M24.4219,89.3570804 L23.3659,89.3570804 L22.9499,88.0530804 L21.1819,88.0530804 L20.7499,89.3570804 L19.6939,89.3570804 L21.6059,84.0770804 L22.5099,84.0770804 L24.4219,89.3570804 Z M22.6779,87.1970804 L22.0619,85.2850804 L21.4539,87.1970804 L22.6779,87.1970804 Z M28.4879,84.4290804 L28.0879,85.3330804 C27.5279,85.0850804 27.0719,84.9570804 26.7199,84.9570804 C26.2479,84.9570804 25.9439,85.1490804 25.9439,85.4450804 C25.9439,85.6690804 26.0719,85.8050804 26.4479,86.0050804 C27.2559,86.4370804 27.7839,86.7730804 28.0319,87.0210804 C28.2559,87.2450804 28.3919,87.5970804 28.3919,87.9650804 C28.3919,88.9090804 27.7039,89.4610804 26.5359,89.4610804 C26.3759,89.4610804 26.2159,89.4530804 26.0639,89.4290804 C25.6879,89.3810804 25.5119,89.3170804 24.9599,89.0610804 L24.6159,88.9010804 L25.0399,87.9730804 C25.4239,88.1810804 25.5839,88.2610804 25.7919,88.3410804 C26.0559,88.4370804 26.3439,88.4930804 26.5519,88.4930804 C27.0159,88.4930804 27.3199,88.2850804 27.3199,87.9650804 C27.3199,87.7410804 27.1999,87.5890804 26.8559,87.3970804 L26.0399,86.9330804 C25.1039,86.3970804 24.8159,86.0450804 24.8159,85.4690804 C24.8159,85.2050804 24.8959,84.9330804 25.0239,84.7330804 C25.1119,84.5970804 25.2479,84.4610804 25.4159,84.3410804 C25.7999,84.0770804 26.1279,83.9890804 26.7439,83.9890804 C27.0959,83.9890804 27.4079,84.0290804 27.7359,84.1250804 C27.9919,84.2050804 28.1359,84.2610804 28.4879,84.4290804 Z" id="GLAS" fill="#FFFFFE"></path>
        <path d="M26.8213,35.1266 C25.4433,32.9556 24.3553,31.2416 24.3553,28.9486 C24.3553,26.1966 24.3393,23.9506 24.3223,21.5716 L24.3113,19.9626 C24.6103,19.6326 24.6673,19.2856 24.6673,19.0706 L24.6673,16.0416 C24.6673,15.8186 24.6063,15.4556 24.2803,15.1166 C24.2803,14.9496 24.2803,14.8026 24.2803,14.8026 C24.2803,12.6456 21.0013,12.6456 19.6013,12.6456 C18.2023,12.6456 14.9233,12.6456 14.9233,14.8026 C14.9233,14.8026 14.9233,14.9496 14.9233,15.1166 C14.5973,15.4556 14.5363,15.8186 14.5363,16.0416 L14.5363,19.0706 C14.5363,19.2856 14.5933,19.6326 14.8923,19.9626 L14.8813,21.5646 C14.8643,23.9456 14.8483,26.1946 14.8483,28.9486 C14.8483,31.2416 13.7603,32.9556 12.3823,35.1266 C10.4913,38.1046 8.1383,41.8106 8.1383,48.3786 L8.1383,71.8276 C8.1383,75.3076 12.4243,77.3856 19.6013,77.3856 C26.7793,77.3856 31.0653,75.3076 31.0653,71.8276 L31.0653,48.3786 C31.0653,41.8106 28.7123,38.1046 26.8213,35.1266 Z M9.9843,59.9816 C9.9823,57.3186 9.9583,54.7276 9.9313,52.2046 C10.1133,52.3136 10.3083,52.4166 10.5153,52.5136 C11.2593,52.8596 12.1903,53.1456 13.2823,53.3636 C13.7673,53.4646 14.2823,53.5476 14.8563,53.6166 C15.3813,53.6866 15.9213,53.7286 16.4863,53.7726 C17.1853,53.8156 17.9113,53.8376 18.6373,53.8376 C19.9593,53.8376 21.2853,53.7656 22.4633,53.6286 C23.5933,53.5026 24.4333,53.3436 24.8513,53.2566 L24.8693,70.0166 C24.4893,70.0876 23.5593,70.2436 22.3053,70.3206 C20.3433,70.4436 18.1203,70.3546 16.2003,70.0766 C15.7193,70.0096 15.2063,69.9136 14.5893,69.7776 C14.1003,69.6646 13.5913,69.5206 13.0873,69.3516 L12.4013,69.0866 L11.7783,68.7866 L11.2323,68.4596 L11.0323,68.3066 C10.9363,68.2346 10.8433,68.1646 10.7753,68.1086 C10.7213,68.0526 10.6653,67.9976 10.6113,67.9446 C10.5363,67.8706 10.4633,67.7996 10.4143,67.7456 L10.2113,67.4656 L10.0153,67.0996 L9.9843,59.9816 Z M22.2523,15.6816 C22.1773,15.7336 22.1243,15.7666 22.1233,15.7666 C22.0123,15.8356 21.9543,15.9626 21.9743,16.0906 C21.9953,16.2196 22.0903,16.3226 22.2163,16.3536 C22.2293,16.3566 22.5493,16.4346 22.9153,16.4586 C22.9583,16.4596 23.0073,16.4616 23.0613,16.4626 L23.1033,17.2596 C23.1183,17.5526 23.1333,17.8456 23.1563,18.1376 L23.2263,19.0516 C23.2243,19.0526 23.2213,19.0556 23.2173,19.0596 C23.1543,19.1166 23.1133,19.1446 23.0583,19.1676 L22.7563,19.2946 C22.5583,19.3756 22.3553,19.4456 22.1483,19.5096 C21.9903,19.5586 21.8953,19.7186 21.9283,19.8806 C21.9613,20.0426 22.1093,20.1506 22.2753,20.1376 C22.5083,20.1146 22.7423,20.0846 22.9733,20.0416 C22.9863,20.0396 22.9993,20.0356 23.0123,20.0326 L22.8813,28.4896 C22.8783,28.6746 22.8753,28.8616 22.8813,29.0606 L22.9293,29.9756 C23.0063,30.5436 23.1173,31.2126 23.3533,31.8646 C23.8473,33.3416 24.6873,34.7146 25.5763,36.1686 C26.1993,37.1876 26.8443,38.2426 27.3923,39.3776 C28.0593,40.7396 28.5603,42.2236 28.8803,43.7776 C28.9063,43.9246 28.9363,44.0716 28.9663,44.2186 C29.0173,44.4676 29.0693,44.7186 29.0953,44.9756 L29.2293,46.2046 C29.2793,46.9046 29.3043,47.7496 29.3073,48.7826 L29.2893,50.3776 C29.2553,53.4726 29.2203,56.6726 29.2183,59.9806 L29.1643,71.9226 C29.1593,72.2256 29.0583,72.5406 28.8673,72.8806 C28.6743,73.1406 28.4033,73.4706 28.0173,73.7196 C27.3863,74.1646 26.5633,74.5196 25.5013,74.8046 C23.8663,75.2396 21.9903,75.4456 19.6023,75.4546 C17.2233,75.4506 15.3483,75.2436 13.7023,74.8066 C12.6403,74.5206 11.8163,74.1656 11.1743,73.7136 C10.8113,73.4806 10.5463,73.1636 10.3533,72.9066 C10.3253,72.8476 10.2933,72.7896 10.2613,72.7306 C10.2153,72.6486 10.1583,72.5456 10.1453,72.4716 C10.1333,72.4166 10.1153,72.3716 10.0963,72.3256 C10.0813,72.2886 10.0753,72.2726 10.0723,72.2446 L10.0353,71.8946 L10.0243,69.1576 C10.1263,69.2316 10.2293,69.3046 10.3383,69.3776 L11.2273,69.8796 L11.9613,70.1856 L12.7343,70.4386 C13.2973,70.5946 13.8503,70.7206 14.3803,70.8136 C15.0343,70.9216 15.5773,70.9926 16.0883,71.0356 C16.9423,71.1126 17.8523,71.1516 18.7713,71.1516 C19.9883,71.1516 21.2203,71.0846 22.3613,70.9516 C24.0473,70.7586 25.1303,70.4596 25.1753,70.4476 C25.1803,70.4456 25.1843,70.4416 25.1893,70.4406 C25.2043,70.4346 25.2183,70.4266 25.2323,70.4186 C25.2453,70.4106 25.2583,70.4036 25.2693,70.3936 C25.2803,70.3836 25.2893,70.3716 25.2983,70.3606 C25.3083,70.3476 25.3173,70.3356 25.3243,70.3216 C25.3313,70.3086 25.3343,70.2946 25.3383,70.2806 C25.3433,70.2646 25.3473,70.2486 25.3483,70.2316 C25.3493,70.2256 25.3523,70.2206 25.3523,70.2146 L25.3343,52.9576 C25.3343,52.9486 25.3303,52.9406 25.3293,52.9326 C25.3283,52.9236 25.3313,52.9156 25.3293,52.9076 C25.3273,52.8996 25.3223,52.8946 25.3203,52.8866 C25.3153,52.8706 25.3083,52.8556 25.3003,52.8416 C25.2933,52.8286 25.2863,52.8176 25.2773,52.8066 C25.2663,52.7936 25.2543,52.7826 25.2413,52.7716 C25.2303,52.7636 25.2203,52.7556 25.2083,52.7496 C25.1943,52.7416 25.1793,52.7346 25.1623,52.7296 C25.1483,52.7256 25.1333,52.7226 25.1183,52.7206 C25.1093,52.7196 25.1013,52.7156 25.0923,52.7156 C25.0853,52.7156 25.0793,52.7196 25.0713,52.7196 C25.0643,52.7206 25.0573,52.7186 25.0503,52.7196 C25.0393,52.7216 23.9823,52.9106 22.4083,52.9976 C20.6173,53.1076 18.4893,53.0386 16.5493,52.8066 C16.0423,52.7386 15.5183,52.6686 15.0173,52.5726 C14.4813,52.4776 13.9843,52.3686 13.5393,52.2496 C12.5673,51.9986 11.7223,51.6886 11.0963,51.3536 C10.7903,51.1886 10.5173,51.0066 10.3083,50.8266 C10.1013,50.6466 9.9833,50.4736 9.9323,50.3976 L9.9113,50.3446 L9.8943,48.7776 C9.8063,45.3506 10.4683,42.1006 11.8103,39.3756 C12.3583,38.2416 13.0023,37.1876 13.6263,36.1676 C14.5153,34.7136 15.3543,33.3406 15.8453,31.8716 C16.0883,31.2066 16.2023,30.5026 16.2763,29.9386 L16.3213,29.0646 C16.3273,28.8586 16.3243,28.6736 16.3213,28.4906 L16.1933,20.1926 C16.4583,20.2486 16.7403,20.2936 17.0803,20.3296 C17.4453,20.3676 17.8153,20.3866 18.1883,20.3866 C18.4613,20.3866 18.7373,20.3766 19.0113,20.3556 C19.1753,20.3436 19.3033,20.2106 19.3093,20.0466 C19.3153,19.8826 19.1973,19.7406 19.0353,19.7156 C18.3933,19.6196 17.8163,19.5276 17.2523,19.3816 C16.9233,19.2946 16.6613,19.2106 16.4343,19.1216 L16.3233,19.0766 C16.2663,19.0526 16.1693,19.0146 16.1493,19.0016 C16.1453,18.9986 16.1333,18.9876 16.1193,18.9766 C16.1203,18.9566 16.1213,18.9376 16.1223,18.9196 L16.2203,16.6096 C16.4933,16.6546 16.8113,16.6786 17.2083,16.6786 C17.2643,16.6786 17.3213,16.6776 17.3803,16.6766 C18.2453,16.6656 19.0703,16.5586 19.1043,16.5536 C19.2633,16.5326 19.3823,16.3986 19.3843,16.2386 C19.3853,16.1796 19.3693,16.1246 19.3403,16.0776 C19.3093,16.0266 19.1953,15.9976 19.1543,15.9956 C17.4523,15.9206 16.1333,15.4326 16.1333,14.8346 C16.1333,14.1836 17.6863,13.6566 19.6013,13.6566 C21.5173,13.6566 23.0703,14.1836 23.0703,14.8346 C23.0703,15.0056 22.9583,15.1686 22.7623,15.3146 L22.2523,15.6816 Z" id="Fill-26" fill="#FFFFFE"></path>
        <path d="M43.1083,85.6930804 C43.1083,86.2770804 42.9003,86.7810804 42.5083,87.1170804 C42.1323,87.4370804 41.6683,87.5730804 40.9483,87.5730804 C40.7483,87.5730804 40.6363,87.5650804 40.4603,87.5490804 L40.4603,89.3570804 L39.4523,89.3570804 L39.4523,84.0770804 L41.2603,84.0770804 C41.9483,84.0770804 42.3323,84.1970804 42.6603,84.5090804 C42.9563,84.8050804 43.1083,85.2050804 43.1083,85.6930804 Z M42.0683,85.7730804 C42.0683,85.1970804 41.7883,84.9330804 41.1643,84.9330804 L40.4603,84.9330804 L40.4603,86.6930804 L40.7163,86.7010804 C40.8283,86.7010804 40.9003,86.7090804 40.9403,86.7090804 C41.7243,86.7090804 42.0683,86.4210804 42.0683,85.7730804 Z M47.0773,89.3570804 L43.9093,89.3570804 L43.9093,84.0770804 L44.9173,84.0770804 L44.9173,88.5010804 L47.0773,88.5010804 L47.0773,89.3570804 Z M51.9023,89.3570804 L50.8463,89.3570804 L50.4303,88.0530804 L48.6623,88.0530804 L48.2303,89.3570804 L47.1743,89.3570804 L49.0863,84.0770804 L49.9903,84.0770804 L51.9023,89.3570804 Z M50.1583,87.1970804 L49.5423,85.2850804 L48.9343,87.1970804 L50.1583,87.1970804 Z M55.9673,84.4290804 L55.5673,85.3330804 C55.0073,85.0850804 54.5513,84.9570804 54.1993,84.9570804 C53.7273,84.9570804 53.4233,85.1490804 53.4233,85.4450804 C53.4233,85.6690804 53.5513,85.8050804 53.9273,86.0050804 C54.7353,86.4370804 55.2633,86.7730804 55.5113,87.0210804 C55.7353,87.2450804 55.8713,87.5970804 55.8713,87.9650804 C55.8713,88.9090804 55.1833,89.4610804 54.0153,89.4610804 C53.8553,89.4610804 53.6953,89.4530804 53.5433,89.4290804 C53.1673,89.3810804 52.9913,89.3170804 52.4393,89.0610804 L52.0953,88.9010804 L52.5193,87.9730804 C52.9033,88.1810804 53.0633,88.2610804 53.2713,88.3410804 C53.5353,88.4370804 53.8233,88.4930804 54.0313,88.4930804 C54.4953,88.4930804 54.7993,88.2850804 54.7993,87.9650804 C54.7993,87.7410804 54.6793,87.5890804 54.3353,87.3970804 L53.5193,86.9330804 C52.5833,86.3970804 52.2953,86.0450804 52.2953,85.4690804 C52.2953,85.2050804 52.3753,84.9330804 52.5033,84.7330804 C52.5913,84.5970804 52.7273,84.4610804 52.8953,84.3410804 C53.2793,84.0770804 53.6073,83.9890804 54.2233,83.9890804 C54.5753,83.9890804 54.8873,84.0290804 55.2153,84.1250804 C55.4713,84.2050804 55.6153,84.2610804 55.9673,84.4290804 Z M60.4483,84.9330804 L58.8643,84.9330804 L58.8643,89.3570804 L57.8563,89.3570804 L57.8563,84.9330804 L56.2723,84.9330804 L56.2723,84.0770804 L60.4483,84.0770804 L60.4483,84.9330804 Z" id="PLAST" fill="#FFFFFE"></path>
        <path d="M59.9207,54.9456 L59.9207,52.6586 C59.9207,52.2996 59.8367,51.7776 59.4637,51.2286 C59.7637,50.7686 59.9207,50.2566 59.9207,49.7356 L59.9207,47.2806 C59.9207,46.7906 59.7687,46.3086 59.4777,45.8716 C60.2737,44.7256 60.6317,43.2096 60.6317,42.1606 C60.6317,36.6156 58.4907,33.7076 56.7677,31.3676 C55.7627,30.0026 54.9587,28.9096 54.7357,27.5566 C55.2897,27.1846 55.4137,26.7086 55.4137,26.3576 L55.4137,25.1296 C55.4137,24.7556 55.2747,24.2486 54.6467,23.8686 L54.6467,22.0076 C54.6467,19.6106 51.3377,19.6106 49.7477,19.6106 C48.1897,19.6106 44.9477,19.6106 44.8567,21.9146 C44.8547,21.9306 44.8497,21.9916 44.8497,22.0086 L44.8487,23.8686 C44.2227,24.2496 44.0837,24.7556 44.0837,25.1296 L44.0837,26.3576 C44.0837,26.7086 44.2077,27.1846 44.7607,27.5576 C44.5387,28.9106 43.7327,30.0046 42.7267,31.3716 C41.4207,33.1446 39.7967,35.3506 39.1427,38.9186 C39.1407,38.9256 39.1317,38.9956 39.1297,39.0026 C38.9517,40.0266 38.8637,41.0596 38.8637,42.1606 C38.8637,43.2086 39.2227,44.7246 40.0187,45.8716 C39.6577,46.4146 39.5757,46.9276 39.5757,47.2806 L39.5757,49.7356 C39.5757,50.2576 39.7327,50.7686 40.0327,51.2286 C39.6597,51.7786 39.5757,52.2996 39.5757,52.6586 L39.5757,54.9456 C39.5757,55.3526 39.6737,55.9416 40.1097,56.5506 C39.2507,57.7076 38.8637,59.2826 38.8637,60.3886 L38.8637,67.7626 C38.8637,70.2726 39.5657,72.6366 40.7707,74.1216 C42.6447,76.2566 45.7497,77.3856 49.7477,77.3856 C53.7467,77.3856 56.8527,76.2566 58.7567,74.0846 C59.9307,72.6366 60.6317,70.2726 60.6317,67.7626 L60.6317,60.3886 C60.6317,59.2816 60.2457,57.7076 59.3877,56.5506 C59.8227,55.9416 59.9207,55.3516 59.9207,54.9456 M45.2107,74.6436 C44.4887,74.3856 43.8377,74.0576 43.2797,73.6716 C42.6257,73.2016 42.1747,72.7356 41.8987,72.2396 C41.2847,71.1786 40.9167,69.8656 40.8057,68.3456 C40.7737,67.5686 40.7547,66.7926 40.7367,66.0436 C40.7237,65.4746 40.7107,64.9206 40.6917,64.3976 C40.6617,63.1636 40.6167,62.0336 40.5767,61.0326 L40.5687,60.8336 C40.5517,60.4266 40.5347,60.0416 40.5807,59.7036 C40.6217,59.3496 40.7027,58.9866 40.8197,58.6256 C41.0007,58.0756 41.2517,57.5766 41.5107,57.2536 C41.5627,57.1896 41.6107,57.1336 41.6527,57.0876 C41.7677,57.1536 41.8787,57.2266 41.9987,57.2806 C42.8737,57.7006 43.7837,57.9036 44.3937,58.0196 C45.1237,58.1526 45.8517,58.2446 46.4937,58.2846 C47.0377,58.3236 47.5657,58.3466 47.9787,58.3476 L48.5357,58.3526 L48.5377,58.3526 C48.6887,58.3526 48.8137,58.2336 48.8217,58.0826 C48.8297,57.9306 48.7167,57.7996 48.5647,57.7846 L48.0107,57.7306 C47.7757,57.7086 47.2777,57.6556 46.5777,57.5426 C45.9677,57.4506 45.2847,57.3026 44.6047,57.1146 C43.7567,56.8756 43.0807,56.6016 42.5297,56.2746 C42.2407,56.1126 41.9707,55.8966 41.7637,55.6656 L41.6947,55.5766 C41.6687,55.5436 41.6417,55.5096 41.6347,55.5036 L41.5387,55.3246 C41.5307,55.3026 41.5257,55.2836 41.5207,55.2646 C41.5087,55.2216 41.4967,55.1806 41.4857,55.1616 C41.4817,55.1386 41.4807,55.1096 41.4797,55.0796 C41.4777,55.0346 41.4757,54.9906 41.4727,54.9716 L41.4697,54.9286 C41.4707,54.9216 41.4717,54.9136 41.4717,54.9056 L41.5567,52.9726 C41.5667,52.6206 41.5797,52.5816 41.6267,52.4966 C41.6727,52.4086 41.7477,52.3186 41.8487,52.2266 C41.9217,52.1596 41.9867,52.1116 42.0337,52.0776 C42.4017,52.2576 42.7797,52.3916 43.1407,52.5036 C43.5327,52.6226 43.9357,52.7206 44.3347,52.7946 C44.7207,52.8746 45.1017,52.9266 45.4617,52.9736 C45.8197,53.0156 46.1567,53.0516 46.4667,53.0706 C47.1457,53.1226 47.6607,53.1356 47.9707,53.1366 L48.5337,53.1426 L48.5367,53.1426 C48.6877,53.1426 48.8127,53.0236 48.8207,52.8726 C48.8287,52.7206 48.7157,52.5896 48.5637,52.5746 L48.0027,52.5196 C47.7577,52.4976 47.2447,52.4426 46.5507,52.3286 C46.2527,52.2846 45.9337,52.2216 45.6007,52.1526 C45.2507,52.0756 44.9077,51.9976 44.5527,51.8916 C44.1897,51.7906 43.8287,51.6686 43.4827,51.5316 C43.1437,51.3926 42.7877,51.2356 42.4677,51.0306 C42.1367,50.8316 41.8737,50.6096 41.6927,50.3726 C41.6137,50.2836 41.5577,50.1636 41.5217,50.0726 C41.5117,50.0266 41.4967,49.9876 41.4797,49.9356 L41.4647,49.7246 C41.4647,49.7236 41.4647,49.7226 41.4647,49.7216 L41.5567,47.6246 L41.5747,47.2666 C41.5827,47.2196 41.5997,47.1726 41.6247,47.1236 C41.6687,47.0366 41.7437,46.9446 41.8447,46.8516 C41.8487,46.8486 41.8517,46.8456 41.8557,46.8426 C42.9497,47.4116 44.0807,47.6526 44.8857,47.7856 C45.6977,47.9076 46.5367,47.9686 47.3927,47.9686 C47.7777,47.9686 48.1657,47.9566 48.5557,47.9316 C48.7017,47.9226 48.8167,47.8046 48.8227,47.6596 C48.8287,47.5136 48.7237,47.3876 48.5797,47.3656 C47.9897,47.2796 47.4037,47.1846 46.8257,47.0756 C46.1677,46.9496 45.6287,46.8226 45.1257,46.6766 C43.9097,46.3376 42.9567,45.9136 42.2187,45.3836 C42.1947,45.3576 42.1677,45.3326 42.1397,45.3096 C41.7027,44.9446 41.3237,44.2746 41.0997,43.4726 C41.0077,43.1456 40.9437,42.7566 40.9187,42.3846 C40.9107,42.1326 40.9267,41.8696 40.9417,41.6056 C40.9517,41.4496 40.9607,41.2926 40.9657,41.1336 C40.9707,40.7316 41.0287,40.3396 41.0927,39.9046 L41.1707,39.3006 L41.4327,38.0926 L41.6927,37.2716 C41.7307,37.1496 41.7687,37.0276 41.8117,36.9156 L42.0547,36.3206 C42.1507,36.0526 42.2797,35.7966 42.4167,35.5266 C42.4707,35.4176 42.5257,35.3096 42.5747,35.2076 C42.7097,34.9446 42.8617,34.6886 43.0137,34.4326 L43.1997,34.1176 C43.5017,33.6226 43.8217,33.1466 44.1597,32.6416 C44.3147,32.4106 44.4707,32.1776 44.6297,31.9356 C44.6997,31.8226 44.7707,31.7106 44.8427,31.5976 C45.0097,31.3366 45.1817,31.0666 45.3257,30.7926 C45.5427,30.4366 45.7077,30.0526 45.8667,29.6806 L45.9817,29.3756 C46.1087,28.9846 46.2407,28.5806 46.2757,28.1766 C46.3337,27.9116 46.3417,27.6566 46.3377,27.4076 C46.8187,27.4666 47.2667,27.4816 47.6217,27.4856 C47.6487,27.4856 47.6757,27.4856 47.7027,27.4856 C48.1927,27.4856 48.6897,27.4606 49.2197,27.4076 C49.3627,27.3936 49.4727,27.2746 49.4767,27.1306 C49.4797,26.9866 49.3747,26.8636 49.2327,26.8426 C48.7197,26.7686 48.2097,26.6886 47.7067,26.5956 C47.2277,26.5046 46.7207,26.4026 46.2577,26.2476 C46.1507,26.2146 46.0467,26.1766 45.9557,26.1366 C45.9527,26.1346 45.9497,26.1336 45.9467,26.1316 L45.9827,25.0136 C46.0627,24.9886 46.1487,24.9676 46.2387,24.9496 C46.5527,24.8836 46.7857,24.6126 46.8047,24.2476 C46.8267,23.8176 46.8387,23.8466 46.8497,23.4176 L46.8587,23.0926 C46.9587,23.0976 47.0537,23.1036 47.1647,23.1036 C47.2947,23.1036 47.4317,23.1006 47.5797,23.0946 C48.4577,23.0606 49.2887,22.9296 49.3247,22.9246 C49.4607,22.9026 49.5627,22.7846 49.5637,22.6466 C49.5647,22.5256 49.4887,22.4236 49.3797,22.3816 C49.2727,22.3776 49.1677,22.3726 49.0637,22.3656 C47.6447,22.2776 46.5887,21.9426 46.5887,21.5436 C46.5887,21.0756 48.0337,20.6966 49.8157,20.6966 C51.5977,20.6966 53.0427,21.0756 53.0427,21.5436 C53.0427,21.6876 52.9057,21.8286 52.6637,21.9516 C52.5357,22.0166 52.3187,22.0866 52.2067,22.1356 C52.0947,22.1856 51.9577,22.2506 51.9557,22.2516 C51.8527,22.3066 51.7937,22.4206 51.8077,22.5366 C51.8217,22.6536 51.9067,22.7496 52.0207,22.7786 C52.0347,22.7816 52.3397,22.8586 52.7127,22.9036 L52.7167,22.9876 C52.7397,23.5616 52.7677,23.6786 52.8097,24.2946 C52.8277,24.5636 53.0257,24.7886 53.2917,24.8396 C53.4167,24.8636 53.5397,24.8916 53.6477,24.9296 L53.7157,26.2416 C53.6097,26.3076 53.4757,26.3616 53.3847,26.3966 C53.0827,26.5086 52.7727,26.6056 52.4637,26.6846 C52.3237,26.7206 52.2327,26.8566 52.2527,27.0006 C52.2737,27.1436 52.3857,27.2536 52.5447,27.2446 C52.7347,27.2376 52.9427,27.2266 53.1567,27.2076 C53.1417,27.5176 53.1317,27.8356 53.1957,28.1396 C53.2257,28.5526 53.3437,28.9306 53.4587,29.2966 L53.5377,29.5476 C53.7497,30.0756 53.9347,30.4646 54.1277,30.7966 C54.3047,31.1386 54.5077,31.4546 54.7047,31.7616 L55.2367,32.5686 C55.5887,33.0976 55.9357,33.6196 56.2647,34.1346 L56.3637,34.3006 C56.5457,34.6076 56.7267,34.9126 56.8867,35.2236 C56.9407,35.3306 56.9957,35.4376 57.0517,35.5446 C57.1917,35.8126 57.3247,36.0656 57.4287,36.3426 L57.6677,36.9136 C57.7137,37.0346 57.7507,37.1576 57.7887,37.2796 L58.0517,38.0736 L58.3367,39.2766 L58.4547,40.0916 C58.5117,40.4506 58.5647,40.7896 58.5747,41.1426 C58.5837,41.2966 58.5957,41.4526 58.6077,41.6086 C58.6287,41.8736 58.6497,42.1396 58.6487,42.3926 C58.6437,42.7336 58.5887,43.1406 58.4967,43.5056 C58.2507,44.4286 57.9127,45.0706 57.4257,45.5026 C57.4027,45.5226 57.3817,45.5446 57.3637,45.5676 C56.8347,45.9856 56.1817,46.3526 55.2697,46.7466 C55.1377,46.8036 55.0697,46.9496 55.1097,47.0876 C55.1457,47.2106 55.2577,47.2926 55.3827,47.2926 C55.3977,47.2926 55.4127,47.2916 55.4287,47.2886 C56.1827,47.1666 56.8517,46.9686 57.4597,46.6916 C57.4887,46.7106 57.5197,46.7316 57.5617,46.7626 C57.7517,46.9076 57.8717,47.0436 57.9307,47.1786 C57.9447,47.2116 57.9557,47.2496 57.9627,47.2906 C57.9687,47.3296 57.9717,47.3946 57.9757,47.4606 L58.0827,49.0896 C58.0877,49.1816 58.0947,49.2796 58.1017,49.3776 C58.1137,49.5456 58.1267,49.7156 58.1257,49.8586 C58.1267,50.1486 57.9117,50.5146 57.5637,50.8156 C57.2037,51.1336 56.7827,51.3606 56.4967,51.5036 C56.1617,51.6716 55.8647,51.7856 55.6357,51.8726 L55.2857,51.9966 C55.1447,52.0466 55.0667,52.1976 55.1067,52.3416 C55.1417,52.4666 55.2557,52.5496 55.3807,52.5496 C55.3997,52.5496 55.4197,52.5476 55.4397,52.5436 L55.8417,52.4576 C56.0777,52.4006 56.4017,52.3236 56.7857,52.1916 C56.9537,52.1326 57.1357,52.0636 57.3237,51.9826 L57.4177,52.0416 C57.4587,52.0676 57.4967,52.0926 57.5577,52.1376 C57.6277,52.1906 57.8387,52.3506 57.9297,52.5516 C57.9587,52.6096 57.9707,52.6716 57.9837,52.9266 L58.0827,54.4046 L58.1207,55.0256 C58.1207,55.0556 58.1217,55.0856 58.1177,55.1256 C58.1097,55.2386 58.0537,55.4296 57.9437,55.5896 C57.8447,55.7406 57.7067,55.8946 57.5277,56.0536 C57.2417,56.2956 56.8967,56.5146 56.4717,56.7236 C56.1357,56.8906 55.8417,57.0036 55.6257,57.0856 L55.2827,57.2076 C55.1417,57.2576 55.0637,57.4096 55.1047,57.5526 C55.1397,57.6776 55.2537,57.7606 55.3787,57.7606 C55.3977,57.7606 55.4177,57.7586 55.4367,57.7546 L55.8027,57.6776 C56.0267,57.6246 56.3647,57.5456 56.7567,57.4126 C57.0107,57.3276 57.3647,57.1956 57.7487,56.9906 C57.8107,57.0506 57.8917,57.1356 57.9867,57.2556 C58.2447,57.5756 58.4967,58.0746 58.6777,58.6236 C58.7947,58.9846 58.8757,59.3476 58.9177,59.7086 C58.9627,60.0406 58.9477,60.4016 58.9297,60.8196 L58.9187,61.1006 C58.8797,62.0856 58.8357,63.1926 58.8067,64.3936 C58.7887,64.9156 58.7757,65.4626 58.7617,66.0246 C58.7437,66.7796 58.7247,67.5626 58.6927,68.3416 C58.5837,69.8446 58.2057,71.1926 57.5997,72.2386 C56.8557,73.5106 55.3867,74.2496 54.2867,74.6436 C53.0137,75.0966 51.5407,75.3156 49.7847,75.3156 L49.7337,75.3156 C47.9637,75.3156 46.4837,75.0956 45.2107,74.6436" id="Fill-28" fill="#FFFFFE"></path>
        <path d="M71.9593663,88.2525666 C71.9913221,88.0050361 72.0073332,87.9729919 72.0553,87.8450804 L73.5193,84.0770804 L74.7273,84.0770804 L74.7273,89.3570804 L73.7673,89.3570804 L73.7673,85.4850804 C73.7273,85.7570804 73.7353,85.7970804 73.5673,86.2370804 L72.3593,89.3570804 L71.4553,89.3570804 L70.3513,86.2930804 C70.2393,85.9890804 70.2313,85.9010804 70.1513,85.4530804 L70.1513,89.3570804 L69.2393,89.3570804 L69.2393,84.0770804 L70.4473,84.0770804 L71.8553,87.8450804 C71.9084644,87.9893837 71.9327874,88.047163 71.9556501,88.2237753 L71.9593663,88.2525666 Z M79.5443,89.3570804 L76.2243,89.3570804 L76.2243,84.0770804 L79.4403,84.0770804 L79.4403,84.9330804 L77.2323,84.9330804 L77.2323,86.2370804 L79.0403,86.2370804 L79.0403,87.0930804 L77.2323,87.0930804 L77.2323,88.5010804 L79.5443,88.5010804 L79.5443,89.3570804 Z M84.0653,84.9330804 L82.4813,84.9330804 L82.4813,89.3570804 L81.4733,89.3570804 L81.4733,84.9330804 L79.8893,84.9330804 L79.8893,84.0770804 L84.0653,84.0770804 L84.0653,84.9330804 Z M87.8479,89.3570804 L86.7919,89.3570804 L86.3759,88.0530804 L84.6079,88.0530804 L84.1759,89.3570804 L83.1199,89.3570804 L85.0319,84.0770804 L85.9359,84.0770804 L87.8479,89.3570804 Z M86.1039,87.1970804 L85.4879,85.2850804 L84.8799,87.1970804 L86.1039,87.1970804 Z M91.7609,89.3570804 L88.5929,89.3570804 L88.5929,84.0770804 L89.6009,84.0770804 L89.6009,88.5010804 L91.7609,88.5010804 L91.7609,89.3570804 Z" id="METAL" fill="#FFFFFE"></path>
        <path d="M91.0812,70.3347 C91.0812,70.3297 91.0802,70.3237 91.0792,70.3177 L91.0792,48.0527 C91.0792,46.8557 90.3292,45.6377 89.7262,44.6597 C89.6642,44.5587 89.5962,44.4487 89.5292,44.3377 C89.7542,44.0367 89.8112,43.7297 89.8112,43.4937 L89.8112,42.6637 C89.8112,40.1417 86.1792,39.7937 82.6852,39.6957 L82.2652,39.6817 L82.1272,38.9667 C81.8842,37.4877 80.9072,36.4217 79.5802,36.1857 C79.4342,36.1587 79.2852,36.1457 79.1402,36.1457 C77.6452,36.1457 76.5602,37.3297 76.5602,38.9617 C76.5602,39.2297 76.5902,39.5017 76.6492,39.7687 L76.2432,39.8057 C73.6452,40.0177 71.2162,40.5967 71.2162,42.6637 L71.2162,43.4937 C71.2162,43.7297 71.2742,44.0377 71.4982,44.3387 C71.4322,44.4487 71.3632,44.5587 71.3012,44.6597 C70.6982,45.6377 69.9482,46.8557 69.9482,48.0527 L69.9512,70.3757 C69.9482,70.3957 69.9472,70.4357 69.9472,70.4567 C69.9472,70.4687 69.9472,70.4797 69.9482,70.4917 C69.9612,71.3847 70.2782,72.6397 71.6742,73.7087 C72.1652,76.0167 75.4332,77.3857 80.5142,77.3857 C85.5872,77.3857 88.8552,76.0177 89.3522,73.7107 C90.7662,72.6287 91.0752,71.3557 91.0792,70.4847 C91.0822,70.4507 91.0842,70.3687 91.0812,70.3347 M81.1832,38.2257 C81.2002,38.2567 81.2112,38.2907 81.2272,38.3227 C81.3302,38.5597 81.4092,38.8177 81.4552,39.0967 L81.5932,39.8117 C81.6102,39.8967 81.6442,39.9747 81.6882,40.0447 L82.2582,43.2007 C81.7272,43.2107 81.2012,43.2217 80.6022,43.2187 C80.3682,43.2197 80.1352,43.2197 79.9042,43.2177 L78.6592,41.1137 L78.2352,40.4177 L77.9782,39.9947 C77.7772,39.5787 77.6742,39.1137 77.6992,38.6497 C77.7272,38.1877 77.8792,37.7257 78.1892,37.3947 C78.3422,37.2287 78.5302,37.0987 78.7392,37.0177 C78.8432,36.9777 78.9532,36.9477 79.0652,36.9337 C79.1822,36.9197 79.2672,36.9107 79.4082,36.9257 C79.8712,36.9607 80.3222,37.1977 80.6732,37.5377 C80.8362,37.6927 80.9752,37.8757 81.0982,38.0697 C81.1262,38.1217 81.1572,38.1717 81.1832,38.2257 M89.1762,70.4857 L89.1812,70.6647 C89.1842,70.7057 89.1812,70.7367 89.1782,70.7697 L89.1722,70.8717 C89.1722,70.9007 89.1612,70.9577 89.1512,71.0107 L89.1362,71.0927 C89.1132,71.1857 89.0852,71.2887 89.0402,71.3967 C88.9992,71.5017 88.9442,71.6097 88.8762,71.7217 C88.8052,71.8317 88.7322,71.9447 88.6352,72.0527 C88.5552,72.1537 88.4602,72.2467 88.3642,72.3407 L88.3402,72.3647 C88.1052,72.5747 87.8562,72.7637 87.6152,72.9117 C87.3652,73.0717 87.1132,73.2027 86.9042,73.3077 C86.4712,73.5137 86.1632,73.6297 86.1602,73.6317 C86.0532,73.6717 85.9962,73.7857 86.0272,73.8957 C86.0542,73.9907 86.1412,74.0537 86.2372,74.0537 C86.2502,74.0537 86.2652,74.0527 86.2792,74.0497 C86.2932,74.0467 86.6202,73.9817 87.1082,73.8417 C87.2972,73.7857 87.5292,73.7057 87.7732,73.6087 L87.7732,73.6357 C87.5652,74.9357 84.9752,75.6777 80.5942,75.6777 C76.2582,75.6777 73.6712,75.0117 73.4172,73.8347 L73.5032,73.8697 C73.7752,73.9707 74.0582,74.0737 74.3432,74.1477 C75.0032,74.3417 75.6742,74.4537 76.1922,74.5307 C76.2952,74.5427 76.3982,74.5557 76.4982,74.5687 C76.6842,74.5927 76.8652,74.6157 77.0402,74.6287 L77.3192,74.6517 C77.4872,74.6657 77.6482,74.6797 77.8002,74.6857 C78.3082,74.7127 78.6852,74.7207 78.9372,74.7237 L79.3652,74.7277 L79.3672,74.7277 C79.4832,74.7277 79.5792,74.6377 79.5852,74.5217 C79.5922,74.4047 79.5052,74.3047 79.3892,74.2927 L78.9602,74.2497 C78.7122,74.2287 78.3512,74.1857 77.8532,74.1157 C77.7072,74.0967 77.5542,74.0697 77.3942,74.0417 L77.1192,73.9947 C76.9562,73.9677 76.7892,73.9317 76.6182,73.8937 C76.5172,73.8717 76.4142,73.8487 76.3182,73.8297 C75.8382,73.7147 75.2112,73.5517 74.6142,73.3177 C74.3722,73.2317 74.1332,73.1207 73.9032,73.0117 L73.6542,72.8827 C73.4552,72.7747 73.2672,72.6717 73.0932,72.5397 C72.9072,72.4217 72.7472,72.2767 72.5932,72.1357 L72.5352,72.0837 C72.3832,71.9127 72.2392,71.7527 72.1462,71.5817 L71.9402,71.1447 C71.9282,71.0827 71.9142,71.0257 71.9022,70.9707 C71.8862,70.9027 71.8712,70.8407 71.8662,70.7967 L71.8532,70.4327 L71.5062,48.9797 C71.6512,49.0527 71.8132,49.1257 72.0052,49.1997 C72.7432,49.4847 73.7972,49.7487 74.9722,49.9407 C77.1212,50.3007 79.3202,50.3087 79.3422,50.3087 L79.3432,50.3087 C79.4612,50.3087 79.5572,50.2147 79.5612,50.0967 C79.5642,49.9787 79.4722,49.8787 79.3542,49.8727 C79.3322,49.8717 77.1692,49.7537 75.0952,49.2977 C73.9762,49.0567 72.9882,48.7577 72.3122,48.4557 C71.9832,48.3107 71.7122,48.1527 71.5852,48.0337 C71.5642,48.0137 71.5492,47.9967 71.5392,47.9847 C71.5352,47.9497 71.5202,47.9177 71.5072,47.8847 C71.5112,47.8297 71.5122,47.7717 71.5212,47.7187 C71.6212,47.1637 71.8812,46.6717 72.1262,46.2097 C72.2852,45.9197 72.4402,45.6587 72.5802,45.4237 C72.6562,45.2957 72.7272,45.1757 72.7912,45.0647 L73.0442,44.6077 C73.2722,44.6807 73.5172,44.7487 73.8162,44.8177 C74.7762,45.0357 75.8322,45.2267 77.1322,45.3577 C78.0002,45.4447 79.7802,45.5197 81.5682,45.4557 C83.0972,45.4017 84.6882,45.2167 85.0982,45.1607 C85.7092,45.0767 86.5252,44.9147 87.3962,44.7067 L87.5112,44.6767 C87.6582,44.6387 87.8082,44.5977 87.9602,44.5507 L88.2362,45.0637 C88.2992,45.1737 88.3692,45.2917 88.4432,45.4167 C88.5842,45.6527 88.7402,45.9167 88.9002,46.2067 L88.9222,46.2497 C89.1492,46.6787 89.4072,47.1657 89.5062,47.7217 C89.5152,47.7727 89.5162,47.8297 89.5202,47.8837 C89.5102,47.9127 89.4942,47.9397 89.4902,47.9727 L89.4902,47.9877 C89.4902,47.9897 89.4892,47.9927 89.4882,47.9947 C89.4802,48.0077 89.4682,48.0237 89.4392,48.0507 C89.4132,48.0797 89.3742,48.1087 89.3342,48.1407 L89.3052,48.1637 C89.0552,48.3427 88.6422,48.5517 88.1692,48.7357 C87.2792,49.0907 86.3242,49.3307 86.3142,49.3327 C86.2022,49.3617 86.1312,49.4727 86.1532,49.5867 C86.1732,49.6907 86.2642,49.7637 86.3672,49.7637 C86.3772,49.7637 86.3862,49.7627 86.3962,49.7617 C86.4372,49.7557 87.4072,49.6237 88.3772,49.3567 C88.7032,49.2687 89.1402,49.1287 89.5222,48.9477 L89.1742,70.4637 C89.1742,70.4707 89.1762,70.4777 89.1762,70.4857 M74.1562,42.5377 C74.1292,42.4937 74.0862,42.4587 74.0352,42.4437 C74.0342,42.4427 74.0332,42.4427 74.0312,42.4427 C73.9162,42.4097 73.7962,42.4767 73.7622,42.5917 C73.7542,42.6187 73.7522,42.6457 73.7542,42.6727 C73.7602,42.7767 73.8122,42.8757 73.8982,42.9477 C73.9992,43.0377 74.1552,43.1217 74.3502,43.1927 C74.7672,43.3417 75.3102,43.4707 75.8782,43.5557 C76.6882,43.6777 77.3742,43.7547 78.0342,43.7977 C78.7462,43.8497 79.5572,43.8777 80.5152,43.8827 C81.4692,43.8777 82.2802,43.8497 82.9922,43.7977 C83.6632,43.7527 84.3482,43.6757 85.1492,43.5557 C85.7192,43.4697 86.2612,43.3407 86.6772,43.1927 C86.8702,43.1227 87.0262,43.0387 87.1262,42.9507 C87.2172,42.8737 87.2692,42.7727 87.2732,42.6667 C87.2742,42.6447 87.2732,42.6217 87.2672,42.5997 C87.2382,42.4837 87.1232,42.4137 87.0062,42.4397 C87.0032,42.4407 87.0012,42.4407 86.9982,42.4417 C86.9142,42.4637 86.8562,42.5107 86.8432,42.5887 L86.8432,42.5897 C86.8402,42.5907 86.8372,42.5907 86.8352,42.5917 C86.8352,42.5917 86.5062,42.7477 85.6602,42.8747 C84.8172,43.0117 83.8682,43.1147 82.6682,43.1717 L82.4872,41.9927 L82.4022,41.4657 L82.5172,41.4657 C82.8982,41.4677 83.4402,41.4727 84.0922,41.4997 C84.7362,41.5277 85.5002,41.5737 86.2842,41.7017 C86.6992,41.7657 87.0852,41.8627 87.4312,41.9887 C87.8452,42.1467 88.0992,42.3407 88.1612,42.5417 C88.1842,42.6287 88.1862,42.7907 88.1892,42.9347 L88.2002,43.6417 C88.1992,43.6427 88.1982,43.6427 88.1982,43.6427 C85.9012,44.6677 82.3812,44.8037 81.4742,44.8427 C81.0782,44.8597 80.5852,44.8627 80.0482,44.8457 C79.0982,44.8137 78.1562,44.7437 77.2482,44.6367 C76.0052,44.4877 75.0052,44.3057 74.1032,44.0657 C73.8052,43.9847 73.5652,43.9097 73.3482,43.8277 C73.2302,43.7847 73.1162,43.7347 73.0092,43.6827 C72.9582,43.6577 72.9122,43.6287 72.8842,43.6137 L72.8972,42.6837 C72.8972,42.6777 72.8982,42.6737 72.8982,42.6727 L72.9112,42.5857 C72.9132,42.5697 72.9152,42.5547 72.9172,42.5417 C72.9252,42.5297 72.9312,42.5167 72.9362,42.5037 C72.9432,42.4837 72.9812,42.4247 73.0392,42.3607 C73.3452,42.0817 73.8352,41.9387 74.1762,41.8557 C74.6112,41.7517 75.0412,41.6917 75.4372,41.6427 C76.2522,41.5537 76.9462,41.5237 77.3962,41.5097 L77.7582,41.4997 L78.8202,43.0517 L78.9222,43.1937 C77.3472,43.1407 75.8382,42.9947 75.1502,42.8667 C74.4612,42.7387 74.1872,42.6167 74.1872,42.6167 L74.1872,42.6157 C74.1822,42.5877 74.1712,42.5607 74.1562,42.5377" id="Fill-30" fill="#FFFFFE"></path>
        <path d="M79.8317,37.6737 C79.6027,37.6037 79.3567,37.5967 79.1627,37.6517 C78.9307,37.7107 78.7207,37.8427 78.5727,38.0187 C78.3057,38.3237 78.1897,38.7607 78.2537,39.2177 C78.2997,39.5677 78.4507,39.9057 78.6767,40.1687 C78.8837,40.4167 79.1187,40.5457 79.2847,40.6117 C79.3747,40.6437 79.4457,40.6647 79.4877,40.6707 L79.5297,40.6787 C79.5407,40.6817 79.5447,40.6817 79.5497,40.6827 L79.6267,40.6987 C79.6927,40.7127 79.7597,40.7197 79.8237,40.7197 C79.8407,40.7197 79.8567,40.7187 79.8727,40.7177 C80.0667,40.7167 80.3577,40.6367 80.5837,40.4217 C80.8267,40.2077 80.9387,39.9147 80.9857,39.7557 C81.0127,39.6547 81.0317,39.5547 81.0367,39.5097 L81.0477,39.4337 C81.0477,39.4327 81.0477,39.4317 81.0477,39.4307 C81.0497,39.4207 81.0507,39.3757 81.0507,39.3657 C81.0497,39.3607 81.0467,39.3557 81.0467,39.3507 L81.0447,39.3227 C81.0427,39.2697 81.0337,39.1927 81.0167,39.0947 C80.9857,38.9197 80.9077,38.6507 80.7197,38.3627 C80.4877,38.0207 80.1817,37.7827 79.8317,37.6737 M80.2297,39.7297 C80.2207,39.8267 80.1897,40.0127 80.0727,40.1647 C79.9757,40.3027 79.8177,40.3877 79.6967,40.4127 C79.6337,40.4287 79.5827,40.4327 79.5427,40.4307 L79.4807,40.4307 L79.4797,40.4297 C79.4547,40.4247 79.3897,40.4077 79.3007,40.3687 C79.2047,40.3237 79.0207,40.2177 78.8687,40.0097 C78.7087,39.7997 78.6057,39.5277 78.5867,39.2627 C78.5627,38.9457 78.6547,38.6487 78.8367,38.4647 C78.9217,38.3747 79.0367,38.3117 79.1617,38.2877 C79.2767,38.2647 79.3907,38.2767 79.5257,38.3257 C79.6327,38.3657 79.7437,38.4377 79.8347,38.5237 C79.9147,38.6007 79.9877,38.6927 80.0487,38.7957 C80.1697,39.0077 80.2057,39.1977 80.2177,39.2927 C80.2307,39.4057 80.2277,39.4727 80.2277,39.4797 C80.2267,39.4877 80.2267,39.5227 80.2277,39.5317 C80.2277,39.5347 80.2297,39.5377 80.2297,39.5407 L80.2317,39.5757 C80.2347,39.6247 80.2337,39.6697 80.2297,39.7297" id="Fill-32" fill="#FFFFFE"></path>
    </g>
</svg>