<?xml version="1.0" encoding="UTF-8"?>
<svg width="100px" height="100px" viewBox="0 0 100 100" version="1.1" xmlns="http://www.w3.org/2000/svg" xmlns:xlink="http://www.w3.org/1999/xlink">
    <!-- Generator: Sketch 51.2 (57519) - http://www.bohemiancoding.com/sketch -->
    <title>restaffald</title>
    <desc>Created with Sketch.</desc>
    <defs></defs>
    <g id="restaffald" stroke="none" stroke-width="1" fill="none" fill-rule="evenodd">
        <path d="M11.3386,-1.42108547e-14 C11.3386,-1.42108547e-14 -0.0004,-1.42108547e-14 -0.0004,11.339 L-0.0004,87.874 C-0.0004,87.874 -0.0004,99.213 11.3386,99.213 L87.8736,99.213 C87.8736,99.213 99.2126,99.213 99.2126,87.874 L99.2126,11.339 C99.2126,11.339 99.2126,-1.42108547e-14 87.8736,-1.42108547e-14 L11.3386,-1.42108547e-14 Z" id="Fill-14" fill="#1A1919"></path>
        <path d="M39.6938,68.071 C39.9908,68.244 40.2938,68.373 40.5608,68.488 L40.6698,68.534 C41.2758,68.777 41.8138,68.905 42.1998,68.997 C42.5748,69.07 42.7888,69.102 42.7888,69.102 C42.7988,69.103 42.8098,69.104 42.8208,69.104 C42.9178,69.104 43.0058,69.04 43.0338,68.944 C43.0648,68.839 43.0138,68.726 42.9138,68.679 C42.9138,68.679 42.7148,68.588 42.3678,68.447 C42.0468,68.314 41.5838,68.083 41.0368,67.783 L40.8628,67.679 C40.6488,67.551 40.4228,67.417 40.1878,67.254 C39.9818,67.124 39.7808,66.968 39.5668,66.802 L39.3148,66.609 C39.0328,66.377 38.7408,66.113 38.4468,65.823 C38.1888,65.576 37.9228,65.286 37.6318,64.935 C37.3638,64.624 37.1168,64.303 36.8928,63.975 C36.7348,63.761 36.5928,63.538 36.4538,63.319 C36.3818,63.207 36.3108,63.095 36.2488,63.004 C36.1628,62.842 36.0718,62.687 35.9818,62.534 C35.8808,62.363 35.7828,62.196 35.6988,62.033 C35.6248,61.88 35.5468,61.735 35.4718,61.593 C35.3888,61.435 35.3078,61.283 35.2388,61.133 L35.0198,60.672 C34.8468,60.31 34.6978,59.998 34.6018,59.748 C34.4508,59.402 34.3558,59.207 34.3558,59.207 C34.3068,59.107 34.1918,59.059 34.0868,59.093 C33.9818,59.127 33.9178,59.233 33.9368,59.342 C33.9368,59.342 33.9738,59.556 34.0548,59.924 C34.1648,60.443 34.2978,60.939 34.4628,61.444 C34.6818,62.105 34.9818,62.817 35.3388,63.518 C35.4068,63.633 35.4728,63.752 35.5388,63.872 C35.6748,64.116 35.8148,64.369 35.9828,64.6 C36.2168,64.957 36.4808,65.314 36.7708,65.664 C37.0798,66.025 37.3868,66.348 37.6798,66.619 C37.9898,66.923 38.3268,67.176 38.6818,67.442 C38.9878,67.654 39.3448,67.895 39.6938,68.071" id="Fill-17" fill="#FFFFFE"></path>
        <path d="M71.4053,75.5188 C71.3993,75.4788 71.3913,75.4188 71.3653,75.3518 C71.3323,75.2668 71.2863,75.2018 71.2483,75.1488 L71.1663,75.0268 C71.1373,74.9948 68.2653,71.7458 68.4733,65.4948 C68.9453,51.3518 67.8633,41.9378 65.1673,36.7148 C62.0223,30.6208 56.3323,27.3678 54.3523,26.3818 C54.3393,25.8518 54.0933,25.1868 53.7263,24.7128 C53.7713,24.2428 53.6833,23.7858 53.4693,23.3818 C53.4173,23.2828 53.3553,23.1878 53.2823,23.0938 C55.9733,21.0388 58.5213,17.6848 58.6323,17.5378 C58.8573,17.2398 58.9033,16.8428 58.7513,16.5018 C58.6773,16.3348 57.9733,14.8648 55.7423,13.5308 C55.7013,12.8408 55.3373,12.2378 54.7003,11.8198 C53.5263,11.0478 51.3673,10.9718 49.7213,11.6108 C49.4193,10.8498 48.7753,9.7078 46.9293,9.2798 C44.2313,8.6528 42.0813,12.5898 41.6783,13.3848 C41.5963,13.5448 41.5583,13.7258 41.5683,13.9068 C41.5753,14.0288 41.7463,16.8258 43.2473,19.7028 C43.0523,19.7758 42.8773,19.8658 42.7183,19.9738 C42.2303,20.3088 41.6243,20.9628 41.5133,22.1738 C41.4533,22.8348 41.6733,23.4738 42.1663,24.0768 C41.6773,24.7798 41.5603,25.6568 41.8183,26.6878 C41.8343,26.7508 41.8533,26.8148 41.8753,26.8788 C39.4953,28.0208 34.3343,31.0368 31.3643,36.7928 C27.8043,43.6898 28.2733,56.9058 28.5263,64.0068 L28.5693,65.2668 C28.7803,71.5918 25.8483,75.5118 25.8193,75.5498 L25.7723,75.6338 C25.7343,75.6948 25.7033,75.7558 25.6783,75.8248 C25.6563,75.8858 25.6393,75.9438 25.6293,76.0018 C25.6183,76.0638 25.6133,76.1278 25.6153,76.2028 C25.6173,76.2718 25.6253,76.3378 25.6343,76.3718 L25.6573,76.5038 C25.6743,76.5538 25.6973,76.5918 25.7123,76.6168 C25.7293,76.6538 25.7463,76.6878 25.7683,76.7218 C25.8223,76.8078 25.8883,76.8838 25.9213,76.9028 L26.0523,77.0228 C26.1113,77.0628 26.1743,77.0948 26.2293,77.1158 L26.3093,77.1518 C26.4153,77.1868 26.5233,77.2038 26.6303,77.2038 C26.7403,77.2038 26.8493,77.1868 26.9553,77.1518 C27.0013,77.1358 31.6613,75.6078 36.6643,75.6078 C39.2443,75.6078 40.6913,75.8978 42.0893,76.1778 C43.4903,76.4578 44.9383,76.7488 47.3813,76.7488 C50.3083,76.7488 53.2483,76.5468 57.0153,74.1478 C62.9833,76.7178 70.1103,76.7478 70.4613,76.7418 C70.5843,76.7358 70.6923,76.7128 70.7913,76.6728 C70.8703,76.6418 70.9283,76.5998 70.9913,76.5548 L71.0823,76.5008 L71.1573,76.4228 C71.2193,76.3548 71.2623,76.2848 71.2873,76.2368 L71.3493,76.1358 C71.3803,76.0658 71.3903,76.0028 71.3983,75.9568 L71.2543,75.9128 C71.2563,75.9038 71.2573,75.8948 71.2583,75.8848 L71.4093,75.9068 C71.4163,75.8778 71.4273,75.8378 71.4323,75.7958 L71.4383,75.7218 C71.4383,75.6488 71.4223,75.5898 71.4053,75.5188 M52.1933,24.4978 C52.1833,24.7918 52.1333,24.9208 51.9033,25.0618 C51.6733,25.2018 51.4503,25.3208 51.1603,25.4028 C50.9883,25.4508 50.8833,25.6228 50.9173,25.7978 C50.9483,25.9598 51.0913,26.0738 51.2523,26.0738 C51.2653,26.0738 51.2773,26.0728 51.2903,26.0718 C51.7013,26.0268 52.0693,25.9118 52.3903,25.7478 C52.3903,25.7478 52.6993,25.9938 52.7373,26.4248 C52.7753,26.8568 52.5683,27.2288 52.3703,27.4888 C52.0013,28.0038 51.2423,28.1828 50.8223,28.2428 C50.2983,28.3188 49.9363,28.3218 49.9143,28.3218 C49.8643,28.3198 49.2323,28.2868 48.3033,28.1948 C48.2663,28.1908 48.2203,28.1848 48.1823,28.1798 L47.7863,28.1328 C47.4343,28.0908 47.0633,28.0408 46.6623,27.9698 L46.0963,27.8548 C45.6313,27.7508 45.2333,27.6368 44.8733,27.5028 C44.5933,27.4018 44.3283,27.2748 44.0733,27.1188 C44.0053,27.0808 43.9463,27.0318 43.8873,26.9848 C43.8513,26.9558 43.8143,26.9278 43.7763,26.8998 C43.7463,26.8668 43.7153,26.8348 43.6833,26.8028 C43.6373,26.7568 43.5893,26.7088 43.5573,26.6528 C43.5043,26.5738 43.4523,26.4908 43.4173,26.3628 C43.4043,26.3338 43.3793,26.2558 43.3543,26.0698 C43.3253,25.8538 43.3253,25.6428 43.3573,25.4728 C43.4013,25.2218 43.5233,25.0118 43.7203,24.8498 C43.7673,24.8108 43.8003,24.7898 43.8373,24.7648 C43.9513,24.8308 44.0643,24.8938 44.1723,24.9518 C44.7293,25.2478 45.2553,25.4588 45.6023,25.5908 C46.4393,25.9118 47.0123,26.0668 47.0363,26.0738 C47.0663,26.0818 47.0963,26.0848 47.1253,26.0848 C47.2723,26.0848 47.4073,25.9908 47.4523,25.8438 C47.5063,25.6678 47.4113,25.4808 47.2383,25.4198 C47.2323,25.4178 46.6833,25.2258 45.9103,24.8638 C45.4083,24.6288 44.9993,24.4098 44.6233,24.1728 C44.5413,24.1218 44.5223,24.1128 44.3543,23.9968 C44.1853,23.8808 43.7743,23.5908 43.6913,23.4948 C43.6073,23.3978 43.4753,23.2438 43.4113,23.1638 C43.2693,22.9988 43.1643,22.8008 43.1113,22.5918 C43.0653,22.4378 43.1043,22.2538 43.1573,22.0368 C43.2063,21.8548 43.2943,21.6768 43.3973,21.5578 C43.4933,21.4428 43.6103,21.3518 43.7483,21.2868 C43.9433,21.1928 44.1893,21.1028 44.4483,21.1318 C44.6163,21.1558 44.7873,21.1628 44.9803,21.2828 L45.1843,21.5298 C45.3503,21.7458 45.4513,21.8648 45.7213,22.1158 C45.9923,22.3668 47.1543,23.1278 47.9243,23.2728 C48.6943,23.4168 49.1433,23.4768 49.8703,23.4918 C49.8703,23.4918 49.8713,23.4918 49.8713,23.4918 C49.8733,23.4918 49.8753,23.4918 49.8773,23.4918 C49.8783,23.4918 49.8793,23.4918 49.8803,23.4918 L49.8853,23.4918 C50.0943,23.5018 50.2973,23.5058 50.4943,23.5058 C50.6193,23.5058 51.3233,23.3878 51.4453,23.3838 C51.4453,23.3838 52.2213,23.6058 52.1933,24.4978 M50.8013,22.7858 C50.5943,22.8148 50.3193,22.8098 50.0673,22.8098 C50.0133,22.8098 49.9633,22.8098 49.9013,22.8078 C49.2213,22.7748 48.6323,22.6918 48.0943,22.5508 C47.6013,22.4328 46.8453,22.0428 46.5573,21.8268 C46.2703,21.6108 45.9793,21.2088 45.8393,21.0158 L45.5943,20.7018 L45.0933,19.9398 C45.0923,19.9388 45.0843,19.9368 45.0813,19.9368 C45.0203,19.8388 44.9573,19.7418 44.9013,19.6408 L44.7973,19.4578 C44.7403,19.3578 44.6823,19.2578 44.6223,19.1348 C44.4543,18.7948 44.2963,18.4748 44.1623,18.1328 C43.8793,17.4398 43.6473,16.7248 43.4753,16.0068 C43.3053,15.2868 43.1923,14.6038 43.1413,13.9708 C43.5163,13.3108 43.9293,12.7128 44.3683,12.1938 C44.6393,11.8758 44.8963,11.6188 45.1493,11.4108 C45.2853,11.3018 45.4263,11.1978 45.5713,11.1128 C45.7393,11.0158 45.8673,10.9578 46.0373,10.9068 C46.0653,10.8938 46.1153,10.8888 46.1793,10.8818 L46.3613,10.8688 L46.5393,10.8848 L46.8123,10.9638 C46.9863,11.0258 47.1213,11.0798 47.2653,11.1608 C47.3883,11.2258 47.5093,11.3118 47.6323,11.4218 C47.8273,11.5978 47.9853,11.8428 48.1293,12.1908 C48.1863,12.3288 48.2333,12.4748 48.2833,12.6258 C48.3293,12.7678 48.3823,12.9178 48.4423,13.0758 L48.1983,13.7038 C48.0503,14.1028 47.7693,14.9018 47.5603,15.7718 C47.3913,16.4658 47.2583,17.2418 47.1943,17.8998 C47.1373,18.4858 47.1253,18.8758 47.1253,18.8758 C47.1193,19.0568 47.2563,19.2108 47.4373,19.2268 C47.4473,19.2278 47.4573,19.2278 47.4673,19.2278 C47.6353,19.2278 47.7813,19.1048 47.8053,18.9348 C47.8063,18.9298 47.8603,18.5608 47.9753,18.0208 C48.1043,17.4118 48.3103,16.6998 48.5413,16.0678 C48.8273,15.2788 49.1733,14.5648 49.3513,14.2118 L49.7103,13.5278 L49.8803,13.4008 L50.1723,13.2448 C50.4393,13.1328 50.6633,13.0558 50.8953,12.9978 C50.9643,12.9768 51.0363,12.9648 51.1083,12.9518 L51.2693,12.9198 C51.3643,12.8978 51.4613,12.8888 51.5583,12.8788 L51.6403,12.8698 C51.7603,12.8538 51.8783,12.8688 52.0053,12.8428 L52.1323,12.8398 C52.2123,12.8358 52.2923,12.8318 52.3983,12.8418 C52.6263,12.8478 52.8693,12.8768 53.1283,12.9268 C53.3913,12.9898 53.5973,13.0658 53.7253,13.1358 C53.7623,13.1638 53.8033,13.1898 53.8433,13.2148 C53.8743,13.2348 53.9213,13.2648 53.9633,13.3138 L54.0443,13.3998 L54.0923,13.4998 C54.1033,13.5228 54.0983,13.5518 54.1143,13.5708 C54.1163,13.5978 54.1203,13.6338 54.1253,13.6688 C54.0933,13.7108 54.0563,13.7498 54.0343,13.7998 C54.0313,13.8068 53.8973,14.1098 53.6503,14.5508 C53.4113,14.9838 53.0383,15.5788 52.6253,16.1818 C51.8253,17.3448 50.9643,18.4988 50.9553,18.5098 C50.8473,18.6548 50.8703,18.8598 51.0093,18.9768 C51.0723,19.0298 51.1513,19.0568 51.2293,19.0568 C51.3203,19.0568 51.4103,19.0208 51.4773,18.9508 C51.4873,18.9398 52.4853,17.8908 53.4353,16.8098 C53.9453,16.2268 54.3993,15.6638 54.7123,15.2288 C54.7943,15.1168 54.8673,15.0118 54.9323,14.9178 C55.3443,15.1568 55.7393,15.4118 56.0893,15.6978 C56.3703,15.9328 56.6063,16.1578 56.8083,16.3838 C56.9153,16.5058 57.0203,16.6298 57.1163,16.7628 C57.1453,16.8028 57.1743,16.8438 57.2023,16.8848 C56.3623,17.9848 55.4773,19.0248 54.5683,19.9798 C53.7713,20.8088 52.1373,22.2478 51.7053,22.4778 C51.2733,22.7068 51.0083,22.7578 50.8013,22.7858 M34.7353,73.9128 C33.7943,73.9678 32.8653,74.0558 31.9763,74.1748 C30.7473,74.3428 29.5503,74.5718 28.3943,74.8408 C28.4513,74.7238 28.5103,74.6138 28.5663,74.4928 C29.1863,73.1528 29.9813,70.9828 30.2463,68.2558 C30.3733,67.0818 30.3873,65.6858 30.2883,63.9888 L30.2753,63.6878 C30.2143,62.3058 30.1503,60.8568 30.1073,59.3608 C29.9913,55.5888 30.0223,52.3098 30.1993,49.3398 C30.3343,47.5358 30.4683,45.9118 30.7413,44.2968 C31.0553,42.3498 31.4123,40.8458 31.8693,39.5478 C32.0403,38.9708 32.2913,38.4148 32.5343,37.8768 L32.7253,37.4468 L32.8383,37.2428 C33.1743,36.6328 33.4923,36.0558 33.8643,35.5308 C34.6633,34.3498 35.5373,33.3018 36.4633,32.4118 C37.9003,31.0018 39.5403,29.7648 41.3393,28.7338 C42.1763,28.2528 42.8013,27.9588 43.1323,27.8128 L43.2153,27.8688 C43.3243,27.9438 43.4353,28.0188 43.5423,28.0708 C43.6103,28.1068 43.6833,28.1358 43.7543,28.1688 L42.8883,28.9448 C41.9693,29.7738 40.8953,30.7618 39.8953,31.8048 C38.8633,32.8798 37.9023,34.0608 37.2633,35.0408 C36.9993,35.4328 36.7563,35.8298 36.5403,36.2228 L36.2933,36.6718 C36.2033,36.8358 36.2613,37.0408 36.4223,37.1328 C36.4763,37.1638 36.5343,37.1788 36.5923,37.1788 C36.7083,37.1788 36.8213,37.1198 36.8853,37.0138 L37.1513,36.5758 C37.3033,36.3268 37.5533,35.9348 37.8913,35.4778 C38.5473,34.5598 39.5193,33.4638 40.5603,32.4698 C41.5753,31.4978 42.6303,30.6078 43.6183,29.7908 L45.0543,28.6098 C45.1663,28.6358 45.2723,28.6568 45.3813,28.6788 L44.1793,30.5608 C43.7503,31.2398 43.3943,31.8758 43.1763,32.3538 C42.9403,32.8688 42.8313,33.2318 42.8263,33.2468 C42.7743,33.4218 42.8693,33.6068 43.0423,33.6678 C43.0793,33.6798 43.1173,33.6868 43.1543,33.6868 C43.2903,33.6868 43.4193,33.6038 43.4723,33.4708 C43.4733,33.4678 43.6033,33.1448 43.8563,32.7028 C44.0993,32.2748 44.4883,31.7048 44.9503,31.0988 L46.6653,28.8728 C46.8693,28.8938 47.0653,28.9098 47.2553,28.9238 C47.1783,29.2528 47.0553,29.7888 46.9183,30.4618 C46.6463,31.7868 46.4123,33.3258 46.2783,34.6848 C46.1363,36.1208 46.0763,37.6768 46.1133,38.9498 C46.1413,40.1018 46.2153,40.8588 46.2183,40.8908 C46.2353,41.0678 46.3843,41.1998 46.5583,41.1998 C46.5673,41.1998 46.5763,41.1998 46.5853,41.1988 C46.7703,41.1838 46.9103,41.0238 46.9003,40.8388 C46.8993,40.8308 46.8583,40.0688 46.8773,38.9458 C46.8933,37.7008 47.0153,36.1888 47.2123,34.7968 C47.3993,33.4738 47.6893,31.9838 48.0083,30.7078 C48.2193,29.8548 48.3963,29.2288 48.4653,28.9888 C48.9723,29.0038 49.3833,29.0078 49.6323,29.0078 C49.7903,29.0078 49.8733,29.0068 49.8943,29.0058 C49.9563,29.0128 50.1973,29.0348 50.5743,29.0348 C50.6743,29.0348 50.7833,29.0328 50.8993,29.0298 C51.1563,29.0158 51.4603,28.9788 51.7803,28.9028 C51.8013,28.9278 51.8153,28.9558 51.8413,28.9768 C51.8473,28.9828 52.5213,29.5348 53.4423,30.3998 C54.1193,31.0378 55.4383,32.3338 56.6723,33.8488 C57.6883,35.0698 58.6763,36.4748 59.3823,37.7018 C59.7563,38.3648 59.9893,38.8478 60.0913,39.0698 L60.3313,39.6198 C60.3873,39.7468 60.5133,39.8238 60.6443,39.8238 C60.6883,39.8238 60.7333,39.8158 60.7763,39.7978 C60.9483,39.7258 61.0313,39.5288 60.9623,39.3558 L60.7403,38.7928 C60.5653,38.3728 60.3223,37.8558 60.0533,37.3348 C59.3703,36.0418 58.4063,34.5568 57.4093,33.2648 C56.2003,31.6638 54.8943,30.2818 54.2233,29.6008 C53.6663,29.0378 53.2143,28.6118 52.9333,28.3528 C53.0133,28.2858 53.0903,28.2168 53.1583,28.1418 C53.3233,27.9678 53.4613,27.7648 53.5793,27.5328 C53.9323,27.7098 54.4653,27.9938 55.1423,28.4068 C55.8053,28.8008 56.5473,29.3038 57.3493,29.9028 C58.1653,30.5058 59.0433,31.2658 59.9583,32.1618 C60.8563,33.0398 61.7313,34.0898 62.5603,35.2848 C63.3653,36.4218 64.0543,37.7688 64.6093,39.2928 C65.1783,40.7998 65.5383,42.5098 65.8313,43.9878 C66.1203,45.6108 66.3443,47.2998 66.4973,49.0088 C66.7653,51.8918 66.8793,54.9758 66.8643,59.0068 C66.8463,60.8208 66.8143,62.2868 66.7643,63.6238 C66.7563,63.9388 66.7433,64.2458 66.7303,64.5508 C66.7133,64.9618 66.6963,65.3688 66.6903,65.7848 L66.6863,66.1458 C66.6823,66.3718 66.6783,66.5948 66.6843,66.8278 L66.7333,67.8528 C66.9643,70.9038 67.8683,73.0938 68.3863,74.1278 C68.5153,74.3838 68.6503,74.6268 68.7883,74.8638 C68.6323,74.8598 68.4693,74.8548 68.2963,74.8478 C67.1623,74.8038 65.4323,74.6918 63.6323,74.4118 C62.6773,74.2638 61.8723,74.1128 61.1703,73.9478 C60.7833,73.8608 60.4093,73.7758 60.0573,73.6728 L59.7223,73.5808 C59.4933,73.5198 59.2743,73.4608 59.0613,73.3868 C58.5043,73.2138 58.3573,73.1658 58.0183,73.0308 C58.2383,72.8478 58.3083,72.7768 58.4943,72.6278 C58.8923,72.3268 59.6013,71.6058 59.9053,71.3458 L60.8373,70.2738 C60.9673,70.0628 60.9873,69.9348 60.8633,69.7948 C60.7393,69.6548 60.5253,69.6408 60.3843,69.7618 L59.2273,70.7558 L58.8843,71.0318 C58.5823,71.2758 58.2423,71.5518 57.8413,71.8378 C57.5763,72.0388 57.2893,72.2468 56.9663,72.4558 C56.6553,72.6728 56.3223,72.8848 55.9713,73.0888 C54.8273,73.7858 53.0003,74.6818 50.7953,74.9958 C49.9143,75.1258 48.9163,75.1838 47.6473,75.1688 C46.3843,75.1568 45.3523,75.0818 44.3973,74.9348 C43.7333,74.8368 43.0563,74.6928 42.4023,74.5528 C41.9823,74.4638 41.5623,74.3748 41.1393,74.2948 C40.0603,74.0928 38.9483,73.9638 37.8353,73.9118 C36.7553,73.8618 35.7423,73.8618 34.7353,73.9128" id="Fill-19" fill="#FFFFFE"></path>
        <path d="M29.2668,87.5852779 L28.0248,87.5852779 L26.6658,85.2092779 L26.0988,85.2092779 L26.0988,87.5852779 L24.9648,87.5852779 L24.9648,81.6452779 L26.9448,81.6452779 C27.8088,81.6452779 28.2048,81.7532779 28.5558,82.0862779 C28.8798,82.3832779 29.0418,82.8152779 29.0418,83.3732779 C29.0418,83.8322779 28.9338,84.2012779 28.7178,84.4892779 C28.4928,84.7772779 28.2858,84.9032779 27.7908,85.0382779 L29.2668,87.5852779 Z M27.8718,83.4002779 C27.8718,82.8332779 27.5748,82.6082779 26.8368,82.6082779 L26.0988,82.6082779 L26.0988,84.2462779 L26.8368,84.2462779 C27.5568,84.2462779 27.8718,83.9942779 27.8718,83.4002779 Z M33.9658,87.5852779 L30.2308,87.5852779 L30.2308,81.6452779 L33.8488,81.6452779 L33.8488,82.6082779 L31.3648,82.6082779 L31.3648,84.0752779 L33.3988,84.0752779 L33.3988,85.0382779 L31.3648,85.0382779 L31.3648,86.6222779 L33.9658,86.6222779 L33.9658,87.5852779 Z M38.8268,82.0412779 L38.3768,83.0582779 C37.7468,82.7792779 37.2338,82.6352779 36.8378,82.6352779 C36.3068,82.6352779 35.9648,82.8512779 35.9648,83.1842779 C35.9648,83.4362779 36.1088,83.5892779 36.5318,83.8142779 C37.4408,84.3002779 38.0348,84.6782779 38.3138,84.9572779 C38.5658,85.2092779 38.7188,85.6052779 38.7188,86.0192779 C38.7188,87.0812779 37.9448,87.7022779 36.6308,87.7022779 C36.4508,87.7022779 36.2708,87.6932779 36.0998,87.6662779 C35.6768,87.6122779 35.4788,87.5402779 34.8578,87.2522779 L34.4708,87.0722779 L34.9478,86.0282779 C35.3798,86.2622779 35.5598,86.3522779 35.7938,86.4422779 C36.0908,86.5502779 36.4148,86.6132779 36.6488,86.6132779 C37.1708,86.6132779 37.5128,86.3792779 37.5128,86.0192779 C37.5128,85.7672779 37.3778,85.5962779 36.9908,85.3802779 L36.0728,84.8582779 C35.0198,84.2552779 34.6958,83.8592779 34.6958,83.2112779 C34.6958,82.9142779 34.7858,82.6082779 34.9298,82.3832779 C35.0288,82.2302779 35.1818,82.0772779 35.3708,81.9422779 C35.8028,81.6452779 36.1718,81.5462779 36.8648,81.5462779 C37.2608,81.5462779 37.6118,81.5912779 37.9808,81.6992779 C38.2688,81.7892779 38.4308,81.8522779 38.8268,82.0412779 Z M43.8678,82.6082779 L42.0858,82.6082779 L42.0858,87.5852779 L40.9518,87.5852779 L40.9518,82.6082779 L39.1698,82.6082779 L39.1698,81.6452779 L43.8678,81.6452779 L43.8678,82.6082779 Z M48.1258,87.5852779 L46.9378,87.5852779 L46.4698,86.1182779 L44.4808,86.1182779 L43.9948,87.5852779 L42.8068,87.5852779 L44.9578,81.6452779 L45.9748,81.6452779 L48.1258,87.5852779 Z M46.1638,85.1552779 L45.4708,83.0042779 L44.7868,85.1552779 L46.1638,85.1552779 Z M52.6448,82.6082779 L50.0978,82.6082779 L50.0978,84.1382779 L52.1858,84.1382779 L52.1858,85.0922779 L50.0978,85.0922779 L50.0978,87.5852779 L48.9638,87.5852779 L48.9638,81.6452779 L52.6448,81.6452779 L52.6448,82.6082779 Z M57.3528,82.6082779 L54.8058,82.6082779 L54.8058,84.1382779 L56.8938,84.1382779 L56.8938,85.0922779 L54.8058,85.0922779 L54.8058,87.5852779 L53.6718,87.5852779 L53.6718,81.6452779 L57.3528,81.6452779 L57.3528,82.6082779 Z M62.5468,87.5852779 L61.3588,87.5852779 L60.8908,86.1182779 L58.9018,86.1182779 L58.4158,87.5852779 L57.2278,87.5852779 L59.3788,81.6452779 L60.3958,81.6452779 L62.5468,87.5852779 Z M60.5848,85.1552779 L59.8918,83.0042779 L59.2078,85.1552779 L60.5848,85.1552779 Z M66.9488,87.5852779 L63.3848,87.5852779 L63.3848,81.6452779 L64.5188,81.6452779 L64.5188,86.6222779 L66.9488,86.6222779 L66.9488,87.5852779 Z M73.2138,84.5972779 C73.2138,85.3892779 72.9168,86.1542779 72.3948,86.7122779 C71.8458,87.2972779 71.0628,87.5852779 69.9918,87.5852779 L67.7958,87.5852779 L67.7958,81.6452779 L70.0008,81.6452779 C71.1258,81.6452779 71.8278,81.8972779 72.4128,82.5182779 C72.9258,83.0672779 73.2138,83.8232779 73.2138,84.5972779 Z M71.9898,84.6062779 C71.9898,83.9312779 71.7288,83.3102779 71.3058,82.9952779 C70.9908,82.7612779 70.5318,82.6442779 69.8838,82.6442779 L68.9838,82.6442779 L68.9838,86.5862779 L69.8838,86.5862779 C71.2338,86.5862779 71.9898,85.8752779 71.9898,84.6062779 Z" id="RESTAFFALD" fill="#FFFFFE"></path>
    </g>
</svg>