<svg width="42" height="42" viewBox="0 0 42 42" xmlns="http://www.w3.org/2000/svg">
  <title>
    search
  </title>
  <path d="M41.21 38.44c.43.42.64.92.64 1.48 0 .57-.21 1.05-.64 1.45-.19.22-.42.39-.68.48a2.21 2.21 0 0 1-1.56 0c-.26-.1-.49-.26-.68-.48l-9.48-9.43a17.23 17.23 0 0 1-10.93 3.81c-2.45 0-4.74-.47-6.89-1.42a17.63 17.63 0 0 1-9.42-9.42 16.92 16.92 0 0 1-1.42-6.88c0-2.45.47-4.74 1.42-6.89a17.35 17.35 0 0 1 3.78-5.61A17.44 17.44 0 0 1 17.87.35 17.44 17.44 0 0 1 30.4 5.53a17.35 17.35 0 0 1 3.78 5.61 16.92 16.92 0 0 1 1.42 6.89c0 2.08-.34 4.05-1.03 5.9a19.23 19.23 0 0 1-2.78 5.08l9.42 9.43zM4.35 18.03c0 1.88.36 3.64 1.07 5.27a12.9 12.9 0 0 0 2.88 4.32 14.2 14.2 0 0 0 4.3 2.9c1.66.72 3.42 1.08 5.28 1.08a13.46 13.46 0 0 0 9.47-3.9c.03 0 .05-.01.07-.03.02-.02.03-.04.03-.07l.02-.03.07-.02a13.7 13.7 0 0 0 3.86-9.52c0-1.86-.36-3.6-1.07-5.23a12.9 12.9 0 0 0-2.88-4.32 14.2 14.2 0 0 0-4.3-2.9 13.17 13.17 0 0 0-5.27-1.08c-1.86 0-3.62.36-5.28 1.07a14.2 14.2 0 0 0-4.3 2.9 12.9 12.9 0 0 0-2.88 4.33 12.83 12.83 0 0 0-1.07 5.23z" fill="#333" fill-rule="evenodd"/>
</svg>
